<?xml version="1.0" encoding="UTF-8" standalone="no"?>
<!DOCTYPE svg PUBLIC "-//W3C//DTD SVG 1.1//EN"
 "http://www.w3.org/Graphics/SVG/1.1/DTD/svg11.dtd">
<!-- Generated by graphviz version 2.43.0 (0)
 -->
<!-- Title: axi_dac_set_datasel Pages: 1 -->
<!--zoomable 394 -->

<svg id="main" version="1.1" xmlns="http://www.w3.org/2000/svg" xmlns:xlink="http://www.w3.org/1999/xlink" xml:space="preserve" onload="init(evt)">

<style type="text/css"><![CDATA[
.node, .edge {opacity: 0.7;}
.node.selected, .edge.selected {opacity: 1;}
.edge:hover path { stroke: red; }
.edge:hover polygon { stroke: red; fill: red; }
]]></style>

<defs>
  <circle id="rim" cx="0" cy="0" r="7"/>
  <circle id="rim2" cx="0" cy="0" r="3.5"/>
  <g id="zoomPlus">
    <use xlink:href="#rim" fill="#404040"><set attributeName="fill" to="#808080" begin="zoomplus.mouseover" end="zoomplus.mouseout"/></use>
    <path d="M-4,0h8M0,-4v8" fill="none" stroke="white" stroke-width="1.5" pointer-events="none"/>
  </g>
  <g id="zoomMin">
    <use xlink:href="#rim" fill="#404040"><set attributeName="fill" to="#808080" begin="zoomminus.mouseover" end="zoomminus.mouseout"/></use>
    <path d="M-4,0h8" fill="none" stroke="white" stroke-width="1.5" pointer-events="none"/>
  </g>
  <g id="arrowUp" transform="translate(30 24)">
    <use xlink:href="#rim"/>
    <path pointer-events="none" fill="none" stroke="white" stroke-width="1.5" d="M0,-3.0v7 M-2.5,-0.5L0,-3.0L2.5,-0.5"/>
  </g>
  <g id="arrowRight" transform="rotate(90) translate(36 -43)">
    <use xlink:href="#rim"/>
    <path pointer-events="none" fill="none" stroke="white" stroke-width="1.5" d="M0,-3.0v7 M-2.5,-0.5L0,-3.0L2.5,-0.5"/>
  </g>
  <g id="arrowDown" transform="rotate(180) translate(-30 -48)">
    <use xlink:href="#rim"/>
    <path pointer-events="none" fill="none" stroke="white" stroke-width="1.5" d="M0,-3.0v7 M-2.5,-0.5L0,-3.0L2.5,-0.5"/>
  </g>
  <g id="arrowLeft" transform="rotate(270) translate(-36 17)">
    <use xlink:href="#rim"/>
    <path pointer-events="none" fill="none" stroke="white" stroke-width="1.5" d="M0,-3.0v7 M-2.5,-0.5L0,-3.0L2.5,-0.5"/>
  </g>
  <g id="resetDef">
    <use xlink:href="#rim2" fill="#404040"><set attributeName="fill" to="#808080" begin="reset.mouseover" end="reset.mouseout"/></use>
  </g>
</defs>
<script type="application/ecmascript">
var viewWidth = 957;
var viewHeight = 394;
var sectionId = 'dynsection-18';
</script>
<script type="application/ecmascript" xlink:href="svg.min.js"/>
<svg id="graph" class="graph">
<g id="viewport">
<title>axi_dac_set_datasel</title>
<!-- Node1 -->
<g id="Node000001" class="node">
<title>Node1</title>
<g id="a_Node000001"><a xlink:title="AXI DAC Set Data type for specific channel.">
<polygon fill="#999999" stroke="#666666" points="949,-162 833,-162 833,-143 949,-143 949,-162"/>
<text text-anchor="middle" x="891" y="-150" font-family="Helvetica,sans-Serif" font-size="10.00">axi_dac_set_datasel</text>
</a>
</g>
</g>
<!-- Node2 -->
<g id="Node000002" class="node">
<title>Node2</title>
<g id="a_Node000002"><a xlink:href="ad3552r_8c.html#a99b8d9b1903e38e171e19132336af7fb" target="_top" xlink:title=" ">
<polygon fill="white" stroke="#666666" points="478,-386 380,-386 380,-367 478,-367 478,-386"/>
<text text-anchor="middle" x="429" y="-374" font-family="Helvetica,sans-Serif" font-size="10.00">ad3552r_axi_init</text>
</a>
</g>
</g>
<!-- Node1&#45;&gt;Node2 -->
<g id="edge1_Node000001_Node000002" class="edge">
<title>Node1&#45;&gt;Node2</title>
<g id="a_edge1_Node000001_Node000002"><a xlink:title=" ">
<path fill="none" stroke="#63b8ff" d="M883.94,-171.99C872.49,-205.56 844.49,-274.28 797,-311.5 703.16,-385.04 554.29,-386.39 478.21,-381.37"/>
<polygon fill="#63b8ff" stroke="#63b8ff" points="887.41,-172.64 887.19,-162.04 880.76,-170.46 887.41,-172.64"/>
</a>
</g>
</g>
<!-- Node6 -->
<g id="Node000006" class="node">
<title>Node6</title>
<g id="a_Node000006"><a xlink:href="axi__dac__core_8c.html#ad2e10485918e87d7d2c6f6a72c971544" target="_top" xlink:title="AXI DAC Data Setup.">
<polygon fill="white" stroke="#666666" points="795.5,-256 682.5,-256 682.5,-237 795.5,-237 795.5,-256"/>
<text text-anchor="middle" x="739" y="-244" font-family="Helvetica,sans-Serif" font-size="10.00">axi_dac_data_setup</text>
</a>
</g>
</g>
<!-- Node1&#45;&gt;Node6 -->
<g id="edge6_Node000001_Node000006" class="edge">
<title>Node1&#45;&gt;Node6</title>
<g id="a_edge6_Node000001_Node000006"><a xlink:title=" ">
<path fill="none" stroke="#63b8ff" d="M866.29,-167.36C835.17,-186.86 781.44,-220.53 755.25,-236.94"/>
<polygon fill="#63b8ff" stroke="#63b8ff" points="868.18,-170.31 874.79,-162.03 864.46,-164.37 868.18,-170.31"/>
</a>
</g>
</g>
<!-- Node8 -->
<g id="Node000008" class="node">
<title>Node8</title>
<g id="a_Node000008"><a xlink:href="adrv904x_2src_2examples_2basic__example_2basic__example_8c.html#ac5f0064cb4ac7ddab3ec02b10217b456" target="_top" xlink:title="Basic example main execution.">
<polygon fill="white" stroke="#666666" points="489,-330 369,-330 369,-311 489,-311 489,-330"/>
<text text-anchor="middle" x="429" y="-318" font-family="Helvetica,sans-Serif" font-size="10.00">basic_example_main</text>
</a>
</g>
</g>
<!-- Node1&#45;&gt;Node8 -->
<g id="edge17_Node000001_Node000008" class="edge">
<title>Node1&#45;&gt;Node8</title>
<g id="a_edge17_Node000001_Node000008"><a xlink:title=" ">
<path fill="none" stroke="#63b8ff" d="M878.63,-170.73C862.79,-194.94 832.05,-237.86 797,-265.5 738,-312.02 718.22,-322.62 645,-339.5 582.38,-353.93 507.17,-340.5 464.34,-330.06"/>
<polygon fill="#63b8ff" stroke="#63b8ff" points="881.68,-172.46 884.13,-162.16 875.78,-168.69 881.68,-172.46"/>
</a>
</g>
</g>
<!-- Node10 -->
<g id="Node000010" class="node">
<title>Node10</title>
<g id="a_Node000010"><a xlink:href="adrv903x_2src_2examples_2dma__example_2dma__example_8c.html#ac25cbf8ae523e89cb0617e68c98bc697" target="_top" xlink:title="DMA example main function.">
<polygon fill="white" stroke="#666666" points="473.5,-181 384.5,-181 384.5,-162 473.5,-162 473.5,-181"/>
<text text-anchor="middle" x="429" y="-169" font-family="Helvetica,sans-Serif" font-size="10.00">example_main</text>
</a>
</g>
</g>
<!-- Node1&#45;&gt;Node10 -->
<g id="edge20_Node000001_Node000010" class="edge">
<title>Node1&#45;&gt;Node10</title>
<g id="a_edge20_Node000001_Node000010"><a xlink:title=" ">
<path fill="none" stroke="#63b8ff" d="M822.83,-156.24C814.14,-156.68 805.36,-157.12 797,-157.5 680.12,-162.87 542.24,-167.74 473.51,-170.06"/>
<polygon fill="#63b8ff" stroke="#63b8ff" points="823.15,-159.72 832.95,-155.71 822.79,-152.73 823.15,-159.72"/>
</a>
</g>
</g>
<!-- Node11 -->
<g id="Node000011" class="node">
<title>Node11</title>
<g id="a_Node000011"><a xlink:href="adrv904x_2src_2examples_2iio__example_2iio__example_8c.html#a692b15b864d48091dc3d7095bea120b4" target="_top" xlink:title="IIO example main execution.">
<polygon fill="white" stroke="#666666" points="482.5,-144 375.5,-144 375.5,-125 482.5,-125 482.5,-144"/>
<text text-anchor="middle" x="429" y="-132" font-family="Helvetica,sans-Serif" font-size="10.00">iio_example_main</text>
</a>
</g>
</g>
<!-- Node1&#45;&gt;Node11 -->
<g id="edge22_Node000001_Node000011" class="edge">
<title>Node1&#45;&gt;Node11</title>
<g id="a_edge22_Node000001_Node000011"><a xlink:title=" ">
<path fill="none" stroke="#63b8ff" d="M822.6,-149.86C730.33,-146.25 566.58,-139.84 482.71,-136.56"/>
<polygon fill="#63b8ff" stroke="#63b8ff" points="822.54,-153.36 832.67,-150.26 822.82,-146.37 822.54,-153.36"/>
</a>
</g>
</g>
<!-- Node16 -->
<g id="Node000016" class="node">
<title>Node16</title>
<g id="a_Node000016"><a xlink:href="adrv902x_2src_2examples_2dma__example_2dma__example_8c.html#a6fab3c4f8551a0a277a9058ddb0f1914" target="_top" xlink:title="DMA example main execution.">
<polygon fill="white" stroke="#666666" points="797,-105 681,-105 681,-86 797,-86 797,-105"/>
<text text-anchor="middle" x="739" y="-93" font-family="Helvetica,sans-Serif" font-size="10.00">dma_example_main</text>
</a>
</g>
</g>
<!-- Node1&#45;&gt;Node16 -->
<g id="edge18_Node000001_Node000016" class="edge">
<title>Node1&#45;&gt;Node16</title>
<g id="a_edge18_Node000001_Node000016"><a xlink:title=" ">
<path fill="none" stroke="#63b8ff" d="M855.26,-139.3C827.71,-128.83 789.88,-114.45 765.19,-105.07"/>
<polygon fill="#63b8ff" stroke="#63b8ff" points="854.3,-142.68 864.89,-142.96 856.79,-136.14 854.3,-142.68"/>
</a>
</g>
</g>
<!-- Node18 -->
<g id="Node000018" class="node">
<title>Node18</title>
<g id="a_Node000018"><a xlink:href="iio__axi__dac_8c.html#ab94f7695cabc8c75070afd86f3e96780" target="_top" xlink:title="Update active channels.">
<polygon fill="white" stroke="#666666" points="796,-67.5 682,-67.5 682,-37.5 796,-37.5 796,-67.5"/>
<text text-anchor="start" x="690" y="-55.5" font-family="Helvetica,sans-Serif" font-size="10.00">iio_axi_dac_prepare</text>
<text text-anchor="middle" x="739" y="-44.5" font-family="Helvetica,sans-Serif" font-size="10.00">_transfer</text>
</a>
</g>
</g>
<!-- Node1&#45;&gt;Node18 -->
<g id="edge21_Node000001_Node000018" class="edge">
<title>Node1&#45;&gt;Node18</title>
<g id="a_edge21_Node000001_Node000018"><a xlink:title=" ">
<path fill="none" stroke="#63b8ff" d="M872.78,-135.85C854.92,-119.23 825.66,-93.75 797,-76.5 791.66,-73.29 785.82,-70.3 779.97,-67.6"/>
<polygon fill="#63b8ff" stroke="#63b8ff" points="870.46,-138.47 880.13,-142.8 875.27,-133.38 870.46,-138.47"/>
</a>
</g>
</g>
<!-- Node19 -->
<g id="Node000019" class="node">
<title>Node19</title>
<g id="a_Node000019"><a xlink:href="headless__arm_8c.html#a840291bc02cba5474a4cb46a9b9566fe" target="_top" xlink:title=" ">
<polygon fill="white" stroke="#666666" points="759.5,-19 718.5,-19 718.5,0 759.5,0 759.5,-19"/>
<text text-anchor="middle" x="739" y="-7" font-family="Helvetica,sans-Serif" font-size="10.00">main</text>
</a>
</g>
</g>
<!-- Node1&#45;&gt;Node19 -->
<g id="edge23_Node000001_Node000019" class="edge">
<title>Node1&#45;&gt;Node19</title>
<g id="a_edge23_Node000001_Node000019"><a xlink:title=" ">
<path fill="none" stroke="#63b8ff" d="M880.67,-133.69C866.31,-106.62 836.3,-56.82 797,-28.5 785.91,-20.51 771.25,-15.72 759.57,-12.95"/>
<polygon fill="#63b8ff" stroke="#63b8ff" points="877.7,-135.58 885.39,-142.86 883.92,-132.37 877.7,-135.58"/>
</a>
</g>
</g>
<!-- Node3 -->
<g id="Node000003" class="node">
<title>Node3</title>
<g id="a_Node000003"><a xlink:href="ad3552r_8c.html#ae80ba21fae1f11883703b87a0bb676e2" target="_top" xlink:title=" ">
<polygon fill="white" stroke="#666666" points="333,-386 256,-386 256,-367 333,-367 333,-386"/>
<text text-anchor="middle" x="294.5" y="-374" font-family="Helvetica,sans-Serif" font-size="10.00">ad3552r_init</text>
</a>
</g>
</g>
<!-- Node2&#45;&gt;Node3 -->
<g id="edge2_Node000002_Node000003" class="edge">
<title>Node2&#45;&gt;Node3</title>
<g id="a_edge2_Node000002_Node000003"><a xlink:title=" ">
<path fill="none" stroke="#63b8ff" d="M369.53,-376.5C357.16,-376.5 344.43,-376.5 333.08,-376.5"/>
<polygon fill="#63b8ff" stroke="#63b8ff" points="369.79,-380 379.79,-376.5 369.79,-373 369.79,-380"/>
</a>
</g>
</g>
<!-- Node4 -->
<g id="Node000004" class="node">
<title>Node4</title>
<g id="a_Node000004"><a xlink:href="axi__qspi__example_8c.html#ac25cbf8ae523e89cb0617e68c98bc697" target="_top" xlink:title="Basic example main execution.">
<polygon fill="white" stroke="#666666" points="89,-386 0,-386 0,-367 89,-367 89,-386"/>
<text text-anchor="middle" x="44.5" y="-374" font-family="Helvetica,sans-Serif" font-size="10.00">example_main</text>
</a>
</g>
</g>
<!-- Node3&#45;&gt;Node4 -->
<g id="edge3_Node000003_Node000004" class="edge">
<title>Node3&#45;&gt;Node4</title>
<g id="a_edge3_Node000003_Node000004"><a xlink:title=" ">
<path fill="none" stroke="#63b8ff" d="M245.7,-376.5C200.5,-376.5 133.25,-376.5 89.39,-376.5"/>
<polygon fill="#63b8ff" stroke="#63b8ff" points="245.83,-380 255.83,-376.5 245.83,-373 245.83,-380"/>
</a>
</g>
</g>
<!-- Node5 -->
<g id="Node000005" class="node">
<title>Node5</title>
<g id="a_Node000005"><a xlink:href="iio__ad3552r_8c.html#a690d5a4cec9b9316e0d635113c09e9d6" target="_top" xlink:title=" ">
<polygon fill="white" stroke="#666666" points="220,-367 125,-367 125,-348 220,-348 220,-367"/>
<text text-anchor="middle" x="172.5" y="-355" font-family="Helvetica,sans-Serif" font-size="10.00">iio_ad3552r_init</text>
</a>
</g>
</g>
<!-- Node3&#45;&gt;Node5 -->
<g id="edge4_Node000003_Node000005" class="edge">
<title>Node3&#45;&gt;Node5</title>
<g id="a_edge4_Node000003_Node000005"><a xlink:title=" ">
<path fill="none" stroke="#63b8ff" d="M245.82,-368.95C237.42,-367.62 228.68,-366.24 220.3,-364.91"/>
<polygon fill="#63b8ff" stroke="#63b8ff" points="245.44,-372.43 255.86,-370.54 246.53,-365.52 245.44,-372.43"/>
</a>
</g>
</g>
<!-- Node5&#45;&gt;Node4 -->
<g id="edge5_Node000005_Node000004" class="edge">
<title>Node5&#45;&gt;Node4</title>
<g id="a_edge5_Node000005_Node000004"><a xlink:title=" ">
<path fill="none" stroke="#63b8ff" d="M114.97,-366.02C106.38,-367.32 97.63,-368.64 89.36,-369.89"/>
<polygon fill="#63b8ff" stroke="#63b8ff" points="115.57,-369.47 124.94,-364.52 114.53,-362.55 115.57,-369.47"/>
</a>
</g>
</g>
<!-- Node7 -->
<g id="Node000007" class="node">
<title>Node7</title>
<g id="a_Node000007"><a xlink:href="axi__dac__core_8c.html#a88b7d1d48e908b038ef3faea467aaa0c" target="_top" xlink:title="AXI DAC Main Initialization.">
<polygon fill="white" stroke="#666666" points="622.5,-219 547.5,-219 547.5,-200 622.5,-200 622.5,-219"/>
<text text-anchor="middle" x="585" y="-207" font-family="Helvetica,sans-Serif" font-size="10.00">axi_dac_init</text>
</a>
</g>
</g>
<!-- Node6&#45;&gt;Node7 -->
<g id="edge7_Node000006_Node000007" class="edge">
<title>Node6&#45;&gt;Node7</title>
<g id="a_edge7_Node000006_Node000007"><a xlink:title=" ">
<path fill="none" stroke="#63b8ff" d="M688.91,-234.55C667.38,-229.31 642.54,-223.26 622.66,-218.42"/>
<polygon fill="#63b8ff" stroke="#63b8ff" points="688.31,-238.01 698.86,-236.97 689.97,-231.21 688.31,-238.01"/>
</a>
</g>
</g>
<!-- Node13 -->
<g id="Node000013" class="node">
<title>Node13</title>
<g id="a_Node000013"><a xlink:href="adrv902x_2src_2examples_2basic__example_2basic__example_8c.html#ac5f0064cb4ac7ddab3ec02b10217b456" target="_top" xlink:title="Basic example main execution.">
<polygon fill="white" stroke="#666666" points="645,-330 525,-330 525,-311 645,-311 645,-330"/>
<text text-anchor="middle" x="585" y="-318" font-family="Helvetica,sans-Serif" font-size="10.00">basic_example_main</text>
</a>
</g>
</g>
<!-- Node6&#45;&gt;Node13 -->
<g id="edge14_Node000006_Node000013" class="edge">
<title>Node6&#45;&gt;Node13</title>
<g id="a_edge14_Node000006_Node000013"><a xlink:title=" ">
<path fill="none" stroke="#63b8ff" d="M715.91,-261.93C697.58,-274.21 670.48,-291.15 645,-302.5 637.86,-305.68 629.99,-308.51 622.4,-310.93"/>
<polygon fill="#63b8ff" stroke="#63b8ff" points="718.1,-264.68 724.4,-256.16 714.17,-258.89 718.1,-264.68"/>
</a>
</g>
</g>
<!-- Node14 -->
<g id="Node000014" class="node">
<title>Node14</title>
<g id="a_Node000014"><a xlink:href="adrv902x_2src_2examples_2iio__example_2iio__example_8c.html#a692b15b864d48091dc3d7095bea120b4" target="_top" xlink:title="IIO example main execution.">
<polygon fill="white" stroke="#666666" points="638.5,-293 531.5,-293 531.5,-274 638.5,-274 638.5,-293"/>
<text text-anchor="middle" x="585" y="-281" font-family="Helvetica,sans-Serif" font-size="10.00">iio_example_main</text>
</a>
</g>
</g>
<!-- Node6&#45;&gt;Node14 -->
<g id="edge15_Node000006_Node000014" class="edge">
<title>Node6&#45;&gt;Node14</title>
<g id="a_edge15_Node000006_Node000014"><a xlink:title=" ">
<path fill="none" stroke="#63b8ff" d="M689.01,-258.43C668.39,-263.44 644.72,-269.21 625.28,-273.94"/>
<polygon fill="#63b8ff" stroke="#63b8ff" points="689.97,-261.79 698.86,-256.03 688.31,-254.99 689.97,-261.79"/>
</a>
</g>
</g>
<!-- Node15 -->
<g id="Node000015" class="node">
<title>Node15</title>
<g id="a_Node000015"><a xlink:href="headless__mb_8c.html#a840291bc02cba5474a4cb46a9b9566fe" target="_top" xlink:title=" ">
<polygon fill="white" stroke="#666666" points="605.5,-256 564.5,-256 564.5,-237 605.5,-237 605.5,-256"/>
<text text-anchor="middle" x="585" y="-244" font-family="Helvetica,sans-Serif" font-size="10.00">main</text>
</a>
</g>
</g>
<!-- Node6&#45;&gt;Node15 -->
<g id="edge16_Node000006_Node000015" class="edge">
<title>Node6&#45;&gt;Node15</title>
<g id="a_edge16_Node000006_Node000015"><a xlink:title=" ">
<path fill="none" stroke="#63b8ff" d="M672.08,-246.5C648.06,-246.5 622.68,-246.5 605.75,-246.5"/>
<polygon fill="#63b8ff" stroke="#63b8ff" points="672.26,-250 682.26,-246.5 672.26,-243 672.26,-250"/>
</a>
</g>
</g>
<!-- Node7&#45;&gt;Node2 -->
<g id="edge8_Node000007_Node000002" class="edge">
<title>Node7&#45;&gt;Node2</title>
<g id="a_edge8_Node000007_Node000002"><a xlink:title=" ">
<path fill="none" stroke="#63b8ff" d="M537.9,-219.41C533.15,-221.81 528.71,-224.79 525,-228.5 488.29,-265.13 520.89,-298.6 489,-339.5 479.63,-351.51 465.19,-360.67 452.95,-366.86"/>
<polygon fill="#63b8ff" stroke="#63b8ff" points="539.45,-222.56 547.32,-215.47 536.75,-216.1 539.45,-222.56"/>
</a>
</g>
</g>
<!-- Node7&#45;&gt;Node8 -->
<g id="edge9_Node000007_Node000008" class="edge">
<title>Node7&#45;&gt;Node8</title>
<g id="a_edge9_Node000007_Node000008"><a xlink:title=" ">
<path fill="none" stroke="#63b8ff" d="M537.57,-222.09C533.19,-223.97 528.93,-226.1 525,-228.5 505.69,-240.3 505.21,-248.71 489,-264.5 472.21,-280.86 452.39,-299.55 440.52,-310.67"/>
<polygon fill="#63b8ff" stroke="#63b8ff" points="539.17,-225.22 547.24,-218.36 536.65,-218.69 539.17,-225.22"/>
</a>
</g>
</g>
<!-- Node9 -->
<g id="Node000009" class="node">
<title>Node9</title>
<g id="a_Node000009"><a xlink:href="adrv904x_2src_2examples_2dma__example_2dma__example_8c.html#a6fab3c4f8551a0a277a9058ddb0f1914" target="_top" xlink:title="DMA example main execution.">
<polygon fill="white" stroke="#666666" points="487,-255 371,-255 371,-236 487,-236 487,-255"/>
<text text-anchor="middle" x="429" y="-243" font-family="Helvetica,sans-Serif" font-size="10.00">dma_example_main</text>
</a>
</g>
</g>
<!-- Node7&#45;&gt;Node9 -->
<g id="edge10_Node000007_Node000009" class="edge">
<title>Node7&#45;&gt;Node9</title>
<g id="a_edge10_Node000007_Node000009"><a xlink:title=" ">
<path fill="none" stroke="#63b8ff" d="M537.32,-220.41C516.06,-225.38 491.12,-231.21 470.65,-236"/>
<polygon fill="#63b8ff" stroke="#63b8ff" points="538.17,-223.81 547.11,-218.12 536.58,-216.99 538.17,-223.81"/>
</a>
</g>
</g>
<!-- Node7&#45;&gt;Node10 -->
<g id="edge11_Node000007_Node000010" class="edge">
<title>Node7&#45;&gt;Node10</title>
<g id="a_edge11_Node000007_Node000010"><a xlink:title=" ">
<path fill="none" stroke="#63b8ff" d="M537.34,-197.99C515.41,-192.58 489.57,-186.2 468.73,-181.06"/>
<polygon fill="#63b8ff" stroke="#63b8ff" points="536.57,-201.4 547.11,-200.4 538.24,-194.6 536.57,-201.4"/>
</a>
</g>
</g>
<!-- Node7&#45;&gt;Node11 -->
<g id="edge12_Node000007_Node000011" class="edge">
<title>Node7&#45;&gt;Node11</title>
<g id="a_edge12_Node000007_Node000011"><a xlink:title=" ">
<path fill="none" stroke="#63b8ff" d="M562.01,-194.19C543.27,-181.66 515.28,-164.18 489,-152.5 481.86,-149.32 473.99,-146.5 466.39,-144.08"/>
<polygon fill="#63b8ff" stroke="#63b8ff" points="560.18,-197.17 570.42,-199.89 564.1,-191.38 560.18,-197.17"/>
</a>
</g>
</g>
<!-- Node12 -->
<g id="Node000012" class="node">
<title>Node12</title>
<g id="a_Node000012"><a xlink:href="ad9371_2src_2app_2headless_8c.html#a840291bc02cba5474a4cb46a9b9566fe" target="_top" xlink:title="main">
<polygon fill="white" stroke="#666666" points="449.5,-218 408.5,-218 408.5,-199 449.5,-199 449.5,-218"/>
<text text-anchor="middle" x="429" y="-206" font-family="Helvetica,sans-Serif" font-size="10.00">main</text>
</a>
</g>
</g>
<!-- Node7&#45;&gt;Node12 -->
<g id="edge13_Node000007_Node000012" class="edge">
<title>Node7&#45;&gt;Node12</title>
<g id="a_edge13_Node000007_Node000012"><a xlink:title=" ">
<path fill="none" stroke="#63b8ff" d="M537.07,-209.2C507.77,-209 471.58,-208.77 449.67,-208.63"/>
<polygon fill="#63b8ff" stroke="#63b8ff" points="537.09,-212.7 547.11,-209.26 537.14,-205.7 537.09,-212.7"/>
</a>
</g>
</g>
<!-- Node17 -->
<g id="Node000017" class="node">
<title>Node17</title>
<g id="a_Node000017"><a xlink:href="adrv902x_2src_2platform_2xilinx_2main_8c.html#ae66f6b31b5ad750f1fe042a706a4e3d4" target="_top" xlink:title="Main function execution for XILINX platform.">
<polygon fill="white" stroke="#666666" points="605.5,-105 564.5,-105 564.5,-86 605.5,-86 605.5,-105"/>
<text text-anchor="middle" x="585" y="-93" font-family="Helvetica,sans-Serif" font-size="10.00">main</text>
</a>
</g>
</g>
<!-- Node16&#45;&gt;Node17 -->
<g id="edge19_Node000016_Node000017" class="edge">
<title>Node16&#45;&gt;Node17</title>
<g id="a_edge19_Node000016_Node000017"><a xlink:title=" ">
<path fill="none" stroke="#63b8ff" d="M670.92,-95.5C647.25,-95.5 622.41,-95.5 605.76,-95.5"/>
<polygon fill="#63b8ff" stroke="#63b8ff" points="670.97,-99 680.97,-95.5 670.97,-92 670.97,-99"/>
</a>
</g>
</g>
</g>
</svg>

<g id="navigator" transform="translate(0 0)" fill="#404254">
  <rect fill="#f2f5e9" fill-opacity="0.5" stroke="#606060" stroke-width=".5" x="0" y="0" width="60" height="60"/>
  <use id="zoomplus" xlink:href="#zoomPlus" x="17" y="9" onmousedown="handleZoom(evt,'in')"/>
  <use id="zoomminus" xlink:href="#zoomMin" x="42" y="9" onmousedown="handleZoom(evt,'out')"/>
  <use id="reset" xlink:href="#resetDef" x="30" y="36" onmousedown="handleReset()"/>
   <use id="arrowup" xlink:href="#arrowUp" x="0" y="0" onmousedown="handlePan(0,-1)"/>
  <use id="arrowright" xlink:href="#arrowRight" x="0" y="0" onmousedown="handlePan(1,0)"/>
  <use id="arrowdown" xlink:href="#arrowDown" x="0" y="0" onmousedown="handlePan(0,1)"/>
  <use id="arrowleft" xlink:href="#arrowLeft" x="0" y="0" onmousedown="handlePan(-1,0)"/>
</g>
<svg viewBox="0 0 15 15" width="100%" height="30px" preserveAspectRatio="xMaxYMin meet">
 <g id="arrow_out" transform="scale(0.3 0.3)">
  <a xlink:href="axi__dac__core_8c_a7360018a633493f6b484f4998987850a_icgraph_org.svg" target="_base">
   <rect id="button" ry="5" rx="5" y="6" x="6" height="38" width="38"
        fill="#f2f5e9" fill-opacity="0.5" stroke="#606060" stroke-width="1.0"/>
   <path id="arrow"
     d="M 11.500037,31.436501 C 11.940474,20.09759 22.043105,11.32322 32.158766,21.979434 L 37.068811,17.246167 C 37.068811,17.246167 37.088388,32 37.088388,32 L 22.160133,31.978069 C 22.160133,31.978069 26.997745,27.140456 26.997745,27.140456 C 18.528582,18.264221 13.291696,25.230495 11.500037,31.436501 z"
     style="fill:#404040;"/>
  </a>
 </g>
</svg>

<style type='text/css'>
<![CDATA[
[data-mouse-over-selected='false'] { opacity: 0.7; }
[data-mouse-over-selected='true']  { opacity: 1.0; }
]]>
</style>
<script type="application/ecmascript"><![CDATA[
document.addEventListener('DOMContentLoaded', (event) => {
  highlightEdges();
  highlightAdjacentNodes();
});
]]></script>
</svg>
