<?xml version="1.0" encoding="UTF-8" standalone="no"?>
<!DOCTYPE svg PUBLIC "-//W3C//DTD SVG 1.1//EN"
 "http://www.w3.org/Graphics/SVG/1.1/DTD/svg11.dtd">
<!-- Generated by graphviz version 2.43.0 (0)
 -->
<!-- Title: axi_dmac_read Pages: 1 -->
<!--zoomable 608 -->

<svg id="main" version="1.1" xmlns="http://www.w3.org/2000/svg" xmlns:xlink="http://www.w3.org/1999/xlink" xml:space="preserve" onload="init(evt)">

<style type="text/css"><![CDATA[
.node, .edge {opacity: 0.7;}
.node.selected, .edge.selected {opacity: 1;}
.edge:hover path { stroke: red; }
.edge:hover polygon { stroke: red; fill: red; }
]]></style>

<defs>
  <circle id="rim" cx="0" cy="0" r="7"/>
  <circle id="rim2" cx="0" cy="0" r="3.5"/>
  <g id="zoomPlus">
    <use xlink:href="#rim" fill="#404040"><set attributeName="fill" to="#808080" begin="zoomplus.mouseover" end="zoomplus.mouseout"/></use>
    <path d="M-4,0h8M0,-4v8" fill="none" stroke="white" stroke-width="1.5" pointer-events="none"/>
  </g>
  <g id="zoomMin">
    <use xlink:href="#rim" fill="#404040"><set attributeName="fill" to="#808080" begin="zoomminus.mouseover" end="zoomminus.mouseout"/></use>
    <path d="M-4,0h8" fill="none" stroke="white" stroke-width="1.5" pointer-events="none"/>
  </g>
  <g id="arrowUp" transform="translate(30 24)">
    <use xlink:href="#rim"/>
    <path pointer-events="none" fill="none" stroke="white" stroke-width="1.5" d="M0,-3.0v7 M-2.5,-0.5L0,-3.0L2.5,-0.5"/>
  </g>
  <g id="arrowRight" transform="rotate(90) translate(36 -43)">
    <use xlink:href="#rim"/>
    <path pointer-events="none" fill="none" stroke="white" stroke-width="1.5" d="M0,-3.0v7 M-2.5,-0.5L0,-3.0L2.5,-0.5"/>
  </g>
  <g id="arrowDown" transform="rotate(180) translate(-30 -48)">
    <use xlink:href="#rim"/>
    <path pointer-events="none" fill="none" stroke="white" stroke-width="1.5" d="M0,-3.0v7 M-2.5,-0.5L0,-3.0L2.5,-0.5"/>
  </g>
  <g id="arrowLeft" transform="rotate(270) translate(-36 17)">
    <use xlink:href="#rim"/>
    <path pointer-events="none" fill="none" stroke="white" stroke-width="1.5" d="M0,-3.0v7 M-2.5,-0.5L0,-3.0L2.5,-0.5"/>
  </g>
  <g id="resetDef">
    <use xlink:href="#rim2" fill="#404040"><set attributeName="fill" to="#808080" begin="reset.mouseover" end="reset.mouseout"/></use>
  </g>
</defs>
<script type="application/ecmascript">
var viewWidth = 1080;
var viewHeight = 608;
var sectionId = 'dynsection-4';
</script>
<script type="application/ecmascript" xlink:href="svg.min.js"/>
<svg id="graph" class="graph">
<g id="viewport">
<title>axi_dmac_read</title>
<!-- Node1 -->
<g id="Node000001" class="node">
<title>Node1</title>
<g id="a_Node000001"><a xlink:title=" ">
<polygon fill="#999999" stroke="#666666" points="1072,-480 981,-480 981,-461 1072,-461 1072,-480"/>
<text text-anchor="middle" x="1026.5" y="-468" font-family="Helvetica,sans-Serif" font-size="10.00">axi_dmac_read</text>
</a>
</g>
</g>
<!-- Node2 -->
<g id="Node000002" class="node">
<title>Node2</title>
<g id="a_Node000002"><a xlink:href="axi__dmac_8c.html#a3b596a4ad1972e61a8af460a0199010e" target="_top" xlink:title=" ">
<polygon fill="white" stroke="#666666" points="941,-588 791,-588 791,-569 941,-569 941,-588"/>
<text text-anchor="middle" x="866" y="-576" font-family="Helvetica,sans-Serif" font-size="10.00">axi_dmac_dev_to_mem_isr</text>
</a>
</g>
</g>
<!-- Node1&#45;&gt;Node2 -->
<g id="edge1_Node000001_Node000002" class="edge">
<title>Node1&#45;&gt;Node2</title>
<g id="a_edge1_Node000001_Node000002"><a xlink:title=" ">
<path fill="none" stroke="#63b8ff" d="M1011.62,-487.89C996.76,-505.52 971.7,-532.54 945,-549.5 931.95,-557.79 916.18,-564.22 902.25,-568.89"/>
<polygon fill="#63b8ff" stroke="#63b8ff" points="1014.4,-490.03 1018.06,-480.08 1009,-485.58 1014.4,-490.03"/>
</a>
</g>
</g>
<!-- Node4 -->
<g id="Node000004" class="node">
<title>Node4</title>
<g id="a_Node000004"><a xlink:href="axi__dmac_8c.html#a124f361311af446f9d727ee931ae1c16" target="_top" xlink:title=" ">
<polygon fill="white" stroke="#666666" points="941,-540 791,-540 791,-521 941,-521 941,-540"/>
<text text-anchor="middle" x="866" y="-528" font-family="Helvetica,sans-Serif" font-size="10.00">axi_dmac_mem_to_dev_isr</text>
</a>
</g>
</g>
<!-- Node1&#45;&gt;Node4 -->
<g id="edge3_Node000001_Node000004" class="edge">
<title>Node1&#45;&gt;Node4</title>
<g id="a_edge3_Node000001_Node000004"><a xlink:title=" ">
<path fill="none" stroke="#63b8ff" d="M990.81,-483.63C961.06,-494.89 918.9,-510.85 892.26,-520.94"/>
<polygon fill="#63b8ff" stroke="#63b8ff" points="992.27,-486.82 1000.39,-480.01 989.79,-480.27 992.27,-486.82"/>
</a>
</g>
</g>
<!-- Node5 -->
<g id="Node000005" class="node">
<title>Node5</title>
<g id="a_Node000005"><a xlink:href="axi__dmac_8c.html#a6da03fce61740c061c1bb76938929a61" target="_top" xlink:title=" ">
<polygon fill="white" stroke="#666666" points="945,-480 787,-480 787,-461 945,-461 945,-480"/>
<text text-anchor="middle" x="866" y="-468" font-family="Helvetica,sans-Serif" font-size="10.00">axi_dmac_mem_to_mem_isr</text>
</a>
</g>
</g>
<!-- Node1&#45;&gt;Node5 -->
<g id="edge5_Node000001_Node000005" class="edge">
<title>Node1&#45;&gt;Node5</title>
<g id="a_edge5_Node000001_Node000005"><a xlink:title=" ">
<path fill="none" stroke="#63b8ff" d="M970.71,-470.5C962.45,-470.5 953.79,-470.5 945.16,-470.5"/>
<polygon fill="#63b8ff" stroke="#63b8ff" points="970.93,-474 980.93,-470.5 970.93,-467 970.93,-474"/>
</a>
</g>
</g>
<!-- Node6 -->
<g id="Node000006" class="node">
<title>Node6</title>
<g id="a_Node000006"><a xlink:href="axi__dmac_8c.html#a94ee2ccbd2fb9f9d2b088e82c653b313" target="_top" xlink:title=" ">
<polygon fill="white" stroke="#666666" points="933.5,-397 798.5,-397 798.5,-378 933.5,-378 933.5,-397"/>
<text text-anchor="middle" x="866" y="-385" font-family="Helvetica,sans-Serif" font-size="10.00">axi_dmac_transfer_start</text>
</a>
</g>
</g>
<!-- Node1&#45;&gt;Node6 -->
<g id="edge6_Node000001_Node000006" class="edge">
<title>Node1&#45;&gt;Node6</title>
<g id="a_edge6_Node000001_Node000006"><a xlink:title=" ">
<path fill="none" stroke="#63b8ff" d="M998.43,-456.32C966.22,-439.46 913.3,-411.75 885.46,-397.17"/>
<polygon fill="#63b8ff" stroke="#63b8ff" points="996.84,-459.44 1007.32,-460.98 1000.08,-453.24 996.84,-459.44"/>
</a>
</g>
</g>
<!-- Node35 -->
<g id="Node000035" class="node">
<title>Node35</title>
<g id="a_Node000035"><a xlink:href="axi__dmac_8c.html#a692b6f4c8ccb8107ab94215bcfecec1e" target="_top" xlink:title=" ">
<polygon fill="white" stroke="#666666" points="933,-344.5 799,-344.5 799,-314.5 933,-314.5 933,-344.5"/>
<text text-anchor="start" x="807" y="-332.5" font-family="Helvetica,sans-Serif" font-size="10.00">axi_dmac_transfer_wait</text>
<text text-anchor="middle" x="866" y="-321.5" font-family="Helvetica,sans-Serif" font-size="10.00">_completion</text>
</a>
</g>
</g>
<!-- Node1&#45;&gt;Node35 -->
<g id="edge37_Node000001_Node000035" class="edge">
<title>Node1&#45;&gt;Node35</title>
<g id="a_edge37_Node000001_Node000035"><a xlink:title=" ">
<path fill="none" stroke="#63b8ff" d="M1014.3,-452.08C1000.28,-430.2 974.48,-393.62 945,-369.5 932.87,-359.57 917.87,-351.16 904.28,-344.65"/>
<polygon fill="#63b8ff" stroke="#63b8ff" points="1011.45,-454.13 1019.73,-460.75 1017.39,-450.41 1011.45,-454.13"/>
</a>
</g>
</g>
<!-- Node3 -->
<g id="Node000003" class="node">
<title>Node3</title>
<g id="a_Node000003"><a xlink:href="ad9361_2src_2main_8c.html#a840291bc02cba5474a4cb46a9b9566fe" target="_top" xlink:title="main">
<polygon fill="white" stroke="#666666" points="697,-600 656,-600 656,-581 697,-581 697,-600"/>
<text text-anchor="middle" x="676.5" y="-588" font-family="Helvetica,sans-Serif" font-size="10.00">main</text>
</a>
</g>
</g>
<!-- Node2&#45;&gt;Node3 -->
<g id="edge2_Node000002_Node000003" class="edge">
<title>Node2&#45;&gt;Node3</title>
<g id="a_edge2_Node000002_Node000003"><a xlink:title=" ">
<path fill="none" stroke="#63b8ff" d="M780.85,-583.89C749.72,-585.88 717.15,-587.96 697.09,-589.25"/>
<polygon fill="#63b8ff" stroke="#63b8ff" points="781.14,-587.37 790.9,-583.24 780.69,-580.39 781.14,-587.37"/>
</a>
</g>
</g>
<!-- Node4&#45;&gt;Node3 -->
<g id="edge4_Node000004_Node000003" class="edge">
<title>Node4&#45;&gt;Node3</title>
<g id="a_edge4_Node000004_Node000003"><a xlink:title=" ">
<path fill="none" stroke="#63b8ff" d="M830.49,-543.7C802.8,-554.2 766.16,-567.87 751,-572.5 732.91,-578.03 711.91,-583.03 697.01,-586.35"/>
<polygon fill="#63b8ff" stroke="#63b8ff" points="831.75,-546.97 839.86,-540.14 829.26,-540.42 831.75,-546.97"/>
</a>
</g>
</g>
<!-- Node7 -->
<g id="Node000007" class="node">
<title>Node7</title>
<g id="a_Node000007"><a xlink:href="ad3552r_8c.html#a5979efa3995167d9c3e596b7f915f0f0" target="_top" xlink:title="Write data samples to dac.">
<polygon fill="white" stroke="#666666" points="743.5,-302 609.5,-302 609.5,-283 743.5,-283 743.5,-302"/>
<text text-anchor="middle" x="676.5" y="-290" font-family="Helvetica,sans-Serif" font-size="10.00">ad3552r_axi_write_data</text>
</a>
</g>
</g>
<!-- Node6&#45;&gt;Node7 -->
<g id="edge7_Node000006_Node000007" class="edge">
<title>Node6&#45;&gt;Node7</title>
<g id="a_edge7_Node000006_Node000007"><a xlink:title=" ">
<path fill="none" stroke="#63b8ff" d="M825.21,-374.21C812.34,-368.88 798.45,-361.97 787,-353.5 767.23,-338.88 771.86,-324.51 751,-311.5 744.74,-307.59 737.7,-304.49 730.52,-302.02"/>
<polygon fill="#63b8ff" stroke="#63b8ff" points="824.21,-377.57 834.8,-377.97 826.77,-371.06 824.21,-377.57"/>
</a>
</g>
</g>
<!-- Node10 -->
<g id="Node000010" class="node">
<title>Node10</title>
<g id="a_Node000010"><a xlink:href="ad7616_8c.html#a95be394fec3468f9125bf4547892241b" target="_top" xlink:title="Read from device in parallel mode. Enter register mode to read/write registers.">
<polygon fill="white" stroke="#666666" points="751,-226 602,-226 602,-207 751,-207 751,-226"/>
<text text-anchor="middle" x="676.5" y="-214" font-family="Helvetica,sans-Serif" font-size="10.00">ad7616_read_data_parallel</text>
</a>
</g>
</g>
<!-- Node6&#45;&gt;Node10 -->
<g id="edge10_Node000006_Node000010" class="edge">
<title>Node6&#45;&gt;Node10</title>
<g id="a_edge10_Node000006_Node000010"><a xlink:title=" ">
<path fill="none" stroke="#63b8ff" d="M819.13,-374.07C807.6,-369.04 795.97,-362.32 787,-353.5 759.49,-326.44 774.81,-304.86 751,-274.5 734.85,-253.91 709.94,-236.28 693.68,-226.03"/>
<polygon fill="#63b8ff" stroke="#63b8ff" points="818.15,-377.45 828.74,-377.91 820.75,-370.95 818.15,-377.45"/>
</a>
</g>
</g>
<!-- Node12 -->
<g id="Node000012" class="node">
<title>Node12</title>
<g id="a_Node000012"><a xlink:href="ad796x_8c.html#a55699ecd3ac941f14a14a205ce6d3373" target="_top" xlink:title="Read data samples from adc.">
<polygon fill="white" stroke="#666666" points="730,-189 623,-189 623,-170 730,-170 730,-189"/>
<text text-anchor="middle" x="676.5" y="-177" font-family="Helvetica,sans-Serif" font-size="10.00">ad796x_read_data</text>
</a>
</g>
</g>
<!-- Node6&#45;&gt;Node12 -->
<g id="edge12_Node000006_Node000012" class="edge">
<title>Node6&#45;&gt;Node12</title>
<g id="a_edge12_Node000006_Node000012"><a xlink:title=" ">
<path fill="none" stroke="#63b8ff" d="M815.36,-374.06C804.72,-369.12 794.45,-362.46 787,-353.5 741.77,-299.13 800.39,-249.12 751,-198.5 745.29,-192.65 738.04,-188.52 730.32,-185.62"/>
<polygon fill="#63b8ff" stroke="#63b8ff" points="814.17,-377.35 824.74,-377.97 816.86,-370.89 814.17,-377.35"/>
</a>
</g>
</g>
<!-- Node14 -->
<g id="Node000014" class="node">
<title>Node14</title>
<g id="a_Node000014"><a xlink:href="ad9467__fmc_8c.html#afc006e4134a35aad96e8224c95db5d43" target="_top" xlink:title=" ">
<polygon fill="white" stroke="#666666" points="705.5,-413 647.5,-413 647.5,-394 705.5,-394 705.5,-413"/>
<text text-anchor="middle" x="676.5" y="-401" font-family="Helvetica,sans-Serif" font-size="10.00">adc_test</text>
</a>
</g>
</g>
<!-- Node6&#45;&gt;Node14 -->
<g id="edge14_Node000006_Node000014" class="edge">
<title>Node6&#45;&gt;Node14</title>
<g id="a_edge14_Node000006_Node000014"><a xlink:title=" ">
<path fill="none" stroke="#63b8ff" d="M788.18,-394.06C759.04,-396.54 727.66,-399.22 705.78,-401.09"/>
<polygon fill="#63b8ff" stroke="#63b8ff" points="788.7,-397.52 798.37,-393.19 788.11,-390.55 788.7,-397.52"/>
</a>
</g>
</g>
<!-- Node15 -->
<g id="Node000015" class="node">
<title>Node15</title>
<g id="a_Node000015"><a xlink:href="ad9467__fmc_8c.html#ae66f6b31b5ad750f1fe042a706a4e3d4" target="_top" xlink:title="Main function.">
<polygon fill="white" stroke="#666666" points="502.5,-413 461.5,-413 461.5,-394 502.5,-394 502.5,-413"/>
<text text-anchor="middle" x="482" y="-401" font-family="Helvetica,sans-Serif" font-size="10.00">main</text>
</a>
</g>
</g>
<!-- Node6&#45;&gt;Node15 -->
<g id="edge21_Node000006_Node000015" class="edge">
<title>Node6&#45;&gt;Node15</title>
<g id="a_edge21_Node000006_Node000015"><a xlink:title=" ">
<path fill="none" stroke="#63b8ff" d="M843.63,-403.51C827.4,-416.09 804.9,-434.44 787,-452.5 769.21,-470.45 773.83,-485.68 751,-496.5 691.16,-524.86 664.61,-518.06 602,-496.5 552.91,-479.59 508.57,-433.21 491,-413.05"/>
<polygon fill="#63b8ff" stroke="#63b8ff" points="846.12,-406.02 851.93,-397.16 841.86,-400.46 846.12,-406.02"/>
</a>
</g>
</g>
<!-- Node16 -->
<g id="Node000016" class="node">
<title>Node16</title>
<g id="a_Node000016"><a xlink:href="adrv902x_2src_2examples_2dma__example_2dma__example_8c.html#a6fab3c4f8551a0a277a9058ddb0f1914" target="_top" xlink:title="DMA example main execution.">
<polygon fill="white" stroke="#666666" points="734.5,-339 618.5,-339 618.5,-320 734.5,-320 734.5,-339"/>
<text text-anchor="middle" x="676.5" y="-327" font-family="Helvetica,sans-Serif" font-size="10.00">dma_example_main</text>
</a>
</g>
</g>
<!-- Node6&#45;&gt;Node16 -->
<g id="edge16_Node000006_Node000016" class="edge">
<title>Node6&#45;&gt;Node16</title>
<g id="a_edge16_Node000006_Node000016"><a xlink:title=" ">
<path fill="none" stroke="#63b8ff" d="M829.49,-374.57C807.11,-366.61 777.53,-356.45 751,-348.5 739.89,-345.17 727.73,-341.88 716.56,-339"/>
<polygon fill="#63b8ff" stroke="#63b8ff" points="828.33,-377.87 838.92,-377.94 830.69,-371.28 828.33,-377.87"/>
</a>
</g>
</g>
<!-- Node18 -->
<g id="Node000018" class="node">
<title>Node18</title>
<g id="a_Node000018"><a xlink:href="adrv903x_2src_2examples_2dma__example_2dma__example_8c.html#ac25cbf8ae523e89cb0617e68c98bc697" target="_top" xlink:title="DMA example main function.">
<polygon fill="white" stroke="#666666" points="721,-376 632,-376 632,-357 721,-357 721,-376"/>
<text text-anchor="middle" x="676.5" y="-364" font-family="Helvetica,sans-Serif" font-size="10.00">example_main</text>
</a>
</g>
</g>
<!-- Node6&#45;&gt;Node18 -->
<g id="edge18_Node000006_Node000018" class="edge">
<title>Node6&#45;&gt;Node18</title>
<g id="a_edge18_Node000006_Node000018"><a xlink:title=" ">
<path fill="none" stroke="#63b8ff" d="M788.3,-378.91C765.39,-376.34 741.07,-373.62 721.07,-371.38"/>
<polygon fill="#63b8ff" stroke="#63b8ff" points="788.04,-382.4 798.37,-380.04 788.82,-375.45 788.04,-382.4"/>
</a>
</g>
</g>
<!-- Node19 -->
<g id="Node000019" class="node">
<title>Node19</title>
<g id="a_Node000019"><a xlink:href="iio__axi__adc_8c.html#aca23a80aa2cbb5c102d031473a0d9189" target="_top" xlink:title="Update active channels.">
<polygon fill="white" stroke="#666666" points="737.5,-450 615.5,-450 615.5,-431 737.5,-431 737.5,-450"/>
<text text-anchor="middle" x="676.5" y="-438" font-family="Helvetica,sans-Serif" font-size="10.00">iio_axi_adc_read_dev</text>
</a>
</g>
</g>
<!-- Node6&#45;&gt;Node19 -->
<g id="edge19_Node000006_Node000019" class="edge">
<title>Node6&#45;&gt;Node19</title>
<g id="a_edge19_Node000006_Node000019"><a xlink:title=" ">
<path fill="none" stroke="#63b8ff" d="M825.98,-400.09C804.04,-407.01 776.1,-415.58 751,-422.5 740.49,-425.4 729.07,-428.31 718.43,-430.92"/>
<polygon fill="#63b8ff" stroke="#63b8ff" points="827.14,-403.39 835.61,-397.03 825.02,-396.72 827.14,-403.39"/>
</a>
</g>
</g>
<!-- Node20 -->
<g id="Node000020" class="node">
<title>Node20</title>
<g id="a_Node000020"><a xlink:href="iio__axi__dac_8c.html#a5391d278882dec3aab5b3caccbb8fdc7" target="_top" xlink:title="Update active channels.">
<polygon fill="white" stroke="#666666" points="740.5,-563 612.5,-563 612.5,-544 740.5,-544 740.5,-563"/>
<text text-anchor="middle" x="676.5" y="-551" font-family="Helvetica,sans-Serif" font-size="10.00">iio_axi_dac_write_data</text>
</a>
</g>
</g>
<!-- Node6&#45;&gt;Node20 -->
<g id="edge20_Node000006_Node000020" class="edge">
<title>Node6&#45;&gt;Node20</title>
<g id="a_edge20_Node000006_Node000020"><a xlink:title=" ">
<path fill="none" stroke="#63b8ff" d="M841.54,-402.84C824.68,-414.79 802.3,-432.65 787,-452.5 763.94,-482.42 779.29,-504.46 751,-529.5 743.86,-535.82 735.03,-540.48 725.99,-543.91"/>
<polygon fill="#63b8ff" stroke="#63b8ff" points="843.54,-405.71 849.79,-397.15 839.57,-399.95 843.54,-405.71"/>
</a>
</g>
</g>
<!-- Node21 -->
<g id="Node000021" class="node">
<title>Node21</title>
<g id="a_Node000021"><a xlink:href="ad6676__ebz_8c.html#a840291bc02cba5474a4cb46a9b9566fe" target="_top" xlink:title="main">
<polygon fill="white" stroke="#666666" points="697,-487 656,-487 656,-468 697,-468 697,-487"/>
<text text-anchor="middle" x="676.5" y="-475" font-family="Helvetica,sans-Serif" font-size="10.00">main</text>
</a>
</g>
</g>
<!-- Node6&#45;&gt;Node21 -->
<g id="edge22_Node000006_Node000021" class="edge">
<title>Node6&#45;&gt;Node21</title>
<g id="a_edge22_Node000006_Node000021"><a xlink:title=" ">
<path fill="none" stroke="#63b8ff" d="M844.54,-403.32C822.55,-419.59 786.03,-444.62 751,-459.5 733.47,-466.95 712.22,-471.73 697.08,-474.48"/>
<polygon fill="#63b8ff" stroke="#63b8ff" points="846.87,-405.94 852.76,-397.14 842.66,-400.35 846.87,-405.94"/>
</a>
</g>
</g>
<!-- Node22 -->
<g id="Node000022" class="node">
<title>Node22</title>
<g id="a_Node000022"><a xlink:href="spi__engine_8c.html#a5f6ea0d5ff05d314530571e8dfcbbe1f" target="_top" xlink:title="Initiate a SPI transfer in offload mode.">
<polygon fill="white" stroke="#666666" points="730.5,-136.5 622.5,-136.5 622.5,-106.5 730.5,-106.5 730.5,-136.5"/>
<text text-anchor="start" x="630.5" y="-124.5" font-family="Helvetica,sans-Serif" font-size="10.00">spi_engine_offload</text>
<text text-anchor="middle" x="676.5" y="-113.5" font-family="Helvetica,sans-Serif" font-size="10.00">_transfer</text>
</a>
</g>
</g>
<!-- Node6&#45;&gt;Node22 -->
<g id="edge23_Node000006_Node000022" class="edge">
<title>Node6&#45;&gt;Node22</title>
<g id="a_edge23_Node000006_Node000022"><a xlink:title=" ">
<path fill="none" stroke="#63b8ff" d="M814.14,-373.84C803.85,-368.94 794.05,-362.35 787,-353.5 732.91,-285.59 802.07,-231.71 751,-161.5 743.22,-150.81 731.69,-142.66 720.05,-136.61"/>
<polygon fill="#63b8ff" stroke="#63b8ff" points="813.09,-377.2 823.66,-377.88 815.82,-370.75 813.09,-377.2"/>
</a>
</g>
</g>
<!-- Node8 -->
<g id="Node000008" class="node">
<title>Node8</title>
<g id="a_Node000008"><a xlink:href="axi__qspi__example_8c.html#aa363cb929bbd18eaee1295cecbcc7a22" target="_top" xlink:title=" ">
<polygon fill="white" stroke="#666666" points="522,-302 442,-302 442,-283 522,-283 522,-302"/>
<text text-anchor="middle" x="482" y="-290" font-family="Helvetica,sans-Serif" font-size="10.00">run_example</text>
</a>
</g>
</g>
<!-- Node7&#45;&gt;Node8 -->
<g id="edge8_Node000007_Node000008" class="edge">
<title>Node7&#45;&gt;Node8</title>
<g id="a_edge8_Node000007_Node000008"><a xlink:title=" ">
<path fill="none" stroke="#63b8ff" d="M599.25,-292.5C572.82,-292.5 544.29,-292.5 522.11,-292.5"/>
<polygon fill="#63b8ff" stroke="#63b8ff" points="599.25,-296 609.25,-292.5 599.25,-289 599.25,-296"/>
</a>
</g>
</g>
<!-- Node9 -->
<g id="Node000009" class="node">
<title>Node9</title>
<g id="a_Node000009"><a xlink:href="axi__qspi__example_8c.html#ac25cbf8ae523e89cb0617e68c98bc697" target="_top" xlink:title="Basic example main execution.">
<polygon fill="white" stroke="#666666" points="342,-302 253,-302 253,-283 342,-283 342,-302"/>
<text text-anchor="middle" x="297.5" y="-290" font-family="Helvetica,sans-Serif" font-size="10.00">example_main</text>
</a>
</g>
</g>
<!-- Node8&#45;&gt;Node9 -->
<g id="edge9_Node000008_Node000009" class="edge">
<title>Node8&#45;&gt;Node9</title>
<g id="a_edge9_Node000008_Node000009"><a xlink:title=" ">
<path fill="none" stroke="#63b8ff" d="M431.5,-292.5C403.56,-292.5 368.96,-292.5 342.06,-292.5"/>
<polygon fill="#63b8ff" stroke="#63b8ff" points="431.85,-296 441.85,-292.5 431.85,-289 431.85,-296"/>
</a>
</g>
</g>
<!-- Node11 -->
<g id="Node000011" class="node">
<title>Node11</title>
<g id="a_Node000011"><a xlink:href="ad7616__sdz_8c.html#a840291bc02cba5474a4cb46a9b9566fe" target="_top" xlink:title="main">
<polygon fill="white" stroke="#666666" points="502.5,-242 461.5,-242 461.5,-223 502.5,-223 502.5,-242"/>
<text text-anchor="middle" x="482" y="-230" font-family="Helvetica,sans-Serif" font-size="10.00">main</text>
</a>
</g>
</g>
<!-- Node10&#45;&gt;Node11 -->
<g id="edge11_Node000010_Node000011" class="edge">
<title>Node10&#45;&gt;Node11</title>
<g id="a_edge11_Node000010_Node000011"><a xlink:title=" ">
<path fill="none" stroke="#63b8ff" d="M591.77,-223.46C558.87,-226.19 523.99,-229.09 502.85,-230.85"/>
<polygon fill="#63b8ff" stroke="#63b8ff" points="592.22,-226.93 601.9,-222.62 591.64,-219.96 592.22,-226.93"/>
</a>
</g>
</g>
<!-- Node13 -->
<g id="Node000013" class="node">
<title>Node13</title>
<g id="a_Node000013"><a xlink:href="ad796x__fmcz_2src_2examples_2basic__example_2basic__example_8c.html#a72943dc9011d36293cb05ca5d7cb6899" target="_top" xlink:title="BASIC example main execution.">
<polygon fill="white" stroke="#666666" points="542,-205 422,-205 422,-186 542,-186 542,-205"/>
<text text-anchor="middle" x="482" y="-193" font-family="Helvetica,sans-Serif" font-size="10.00">basic_example_main</text>
</a>
</g>
</g>
<!-- Node12&#45;&gt;Node13 -->
<g id="edge13_Node000012_Node000013" class="edge">
<title>Node12&#45;&gt;Node13</title>
<g id="a_edge13_Node000012_Node000013"><a xlink:title=" ">
<path fill="none" stroke="#63b8ff" d="M612.72,-184.72C590.1,-186.6 564.65,-188.71 542.33,-190.57"/>
<polygon fill="#63b8ff" stroke="#63b8ff" points="613.22,-188.19 622.9,-183.87 612.64,-181.21 613.22,-188.19"/>
</a>
</g>
</g>
<!-- Node14&#45;&gt;Node15 -->
<g id="edge15_Node000014_Node000015" class="edge">
<title>Node14&#45;&gt;Node15</title>
<g id="a_edge15_Node000014_Node000015"><a xlink:title=" ">
<path fill="none" stroke="#63b8ff" d="M637.04,-403.5C596.49,-403.5 534.22,-403.5 502.71,-403.5"/>
<polygon fill="#63b8ff" stroke="#63b8ff" points="637.1,-407 647.1,-403.5 637.1,-400 637.1,-407"/>
</a>
</g>
</g>
<!-- Node17 -->
<g id="Node000017" class="node">
<title>Node17</title>
<g id="a_Node000017"><a xlink:href="adrv902x_2src_2platform_2xilinx_2main_8c.html#ae66f6b31b5ad750f1fe042a706a4e3d4" target="_top" xlink:title="Main function execution for XILINX platform.">
<polygon fill="white" stroke="#666666" points="502.5,-339 461.5,-339 461.5,-320 502.5,-320 502.5,-339"/>
<text text-anchor="middle" x="482" y="-327" font-family="Helvetica,sans-Serif" font-size="10.00">main</text>
</a>
</g>
</g>
<!-- Node16&#45;&gt;Node17 -->
<g id="edge17_Node000016_Node000017" class="edge">
<title>Node16&#45;&gt;Node17</title>
<g id="a_edge17_Node000016_Node000017"><a xlink:title=" ">
<path fill="none" stroke="#63b8ff" d="M608,-329.5C570.94,-329.5 527.63,-329.5 502.94,-329.5"/>
<polygon fill="#63b8ff" stroke="#63b8ff" points="608.26,-333 618.26,-329.5 608.26,-326 608.26,-333"/>
</a>
</g>
</g>
<!-- Node23 -->
<g id="Node000023" class="node">
<title>Node23</title>
<g id="a_Node000023"><a xlink:href="ad463x_8c.html#ac1cc8e1c72706ef210ea4d3e746a7c0c" target="_top" xlink:title="Read from device. Enter register mode to read/write registers.">
<polygon fill="white" stroke="#666666" points="555,-131 409,-131 409,-112 555,-112 555,-131"/>
<text text-anchor="middle" x="482" y="-119" font-family="Helvetica,sans-Serif" font-size="10.00">ad463x_read_data_offload</text>
</a>
</g>
</g>
<!-- Node22&#45;&gt;Node23 -->
<g id="edge24_Node000022_Node000023" class="edge">
<title>Node22&#45;&gt;Node23</title>
<g id="a_edge24_Node000022_Node000023"><a xlink:title=" ">
<path fill="none" stroke="#63b8ff" d="M612.15,-121.5C593.87,-121.5 573.8,-121.5 555.03,-121.5"/>
<polygon fill="#63b8ff" stroke="#63b8ff" points="612.39,-125 622.39,-121.5 612.39,-118 612.39,-125"/>
</a>
</g>
</g>
<!-- Node27 -->
<g id="Node000027" class="node">
<title>Node27</title>
<g id="a_Node000027"><a xlink:href="ad469x_8c.html#abda6b9d65e0b6e2a82390a09a8f08eb8" target="_top" xlink:title="Exit conversion mode. Enter register mode to read/write registers.">
<polygon fill="white" stroke="#666666" points="566,-94 398,-94 398,-75 566,-75 566,-94"/>
<text text-anchor="middle" x="482" y="-82" font-family="Helvetica,sans-Serif" font-size="10.00">ad469x_exit_conversion_mode</text>
</a>
</g>
</g>
<!-- Node22&#45;&gt;Node27 -->
<g id="edge28_Node000022_Node000027" class="edge">
<title>Node22&#45;&gt;Node27</title>
<g id="a_edge28_Node000022_Node000027"><a xlink:title=" ">
<path fill="none" stroke="#63b8ff" d="M612.3,-109.35C586.42,-104.38 556.92,-98.71 532.63,-94.04"/>
<polygon fill="#63b8ff" stroke="#63b8ff" points="611.91,-112.84 622.39,-111.29 613.23,-105.97 611.91,-112.84"/>
</a>
</g>
</g>
<!-- Node28 -->
<g id="Node000028" class="node">
<title>Node28</title>
<g id="a_Node000028"><a xlink:href="ad469x_8c.html#a92cd606b28fd68b3a2c52717552818df" target="_top" xlink:title="Read from device. Enter register mode to read/write registers.">
<polygon fill="white" stroke="#666666" points="535.5,-57 428.5,-57 428.5,-38 535.5,-38 535.5,-57"/>
<text text-anchor="middle" x="482" y="-45" font-family="Helvetica,sans-Serif" font-size="10.00">ad469x_read_data</text>
</a>
</g>
</g>
<!-- Node22&#45;&gt;Node28 -->
<g id="edge29_Node000022_Node000028" class="edge">
<title>Node22&#45;&gt;Node28</title>
<g id="a_edge29_Node000022_Node000028"><a xlink:title=" ">
<path fill="none" stroke="#63b8ff" d="M640.85,-101.39C619.77,-89.85 591.98,-75.84 566,-66.5 555.71,-62.8 544.43,-59.65 533.6,-57.04"/>
<polygon fill="#63b8ff" stroke="#63b8ff" points="639.29,-104.53 649.74,-106.33 642.69,-98.41 639.29,-104.53"/>
</a>
</g>
</g>
<!-- Node32 -->
<g id="Node000032" class="node">
<title>Node32</title>
<g id="a_Node000032"><a xlink:href="adaq7980_8c.html#a1d04d6c8c5b30c8f739bb4ed0f7deecd" target="_top" xlink:title="Read from device. Enter register mode to read/write registers.">
<polygon fill="white" stroke="#666666" points="535.5,-20 428.5,-20 428.5,-1 535.5,-1 535.5,-20"/>
<text text-anchor="middle" x="482" y="-8" font-family="Helvetica,sans-Serif" font-size="10.00">ad7980_read_data</text>
</a>
</g>
</g>
<!-- Node22&#45;&gt;Node32 -->
<g id="edge34_Node000022_Node000032" class="edge">
<title>Node22&#45;&gt;Node32</title>
<g id="a_edge34_Node000022_Node000032"><a xlink:title=" ">
<path fill="none" stroke="#63b8ff" d="M655.38,-98.94C634.99,-77.5 601.45,-46.01 566,-28.5 556.61,-23.86 546.05,-20.41 535.68,-17.85"/>
<polygon fill="#63b8ff" stroke="#63b8ff" points="652.9,-101.41 662.28,-106.34 658.02,-96.64 652.9,-101.41"/>
</a>
</g>
</g>
<!-- Node34 -->
<g id="Node000034" class="node">
<title>Node34</title>
<g id="a_Node000034"><a xlink:href="ad713x__fmc_8c.html#ae66f6b31b5ad750f1fe042a706a4e3d4" target="_top" xlink:title=" ">
<polygon fill="white" stroke="#666666" points="502.5,-168 461.5,-168 461.5,-149 502.5,-149 502.5,-168"/>
<text text-anchor="middle" x="482" y="-156" font-family="Helvetica,sans-Serif" font-size="10.00">main</text>
</a>
</g>
</g>
<!-- Node22&#45;&gt;Node34 -->
<g id="edge36_Node000022_Node000034" class="edge">
<title>Node22&#45;&gt;Node34</title>
<g id="a_edge36_Node000022_Node000034"><a xlink:title=" ">
<path fill="none" stroke="#63b8ff" d="M612.41,-133.63C574.42,-140.93 528.56,-149.74 502.9,-154.67"/>
<polygon fill="#63b8ff" stroke="#63b8ff" points="613.23,-137.03 622.39,-131.71 611.91,-130.16 613.23,-137.03"/>
</a>
</g>
</g>
<!-- Node24 -->
<g id="Node000024" class="node">
<title>Node24</title>
<g id="a_Node000024"><a xlink:href="ad463x_8c.html#a354bac86baa990ef631a0316640aa6ef" target="_top" xlink:title="Read from device. Enter register mode to read/write registers.">
<polygon fill="white" stroke="#666666" points="351,-132 244,-132 244,-113 351,-113 351,-132"/>
<text text-anchor="middle" x="297.5" y="-120" font-family="Helvetica,sans-Serif" font-size="10.00">ad463x_read_data</text>
</a>
</g>
</g>
<!-- Node23&#45;&gt;Node24 -->
<g id="edge25_Node000023_Node000024" class="edge">
<title>Node23&#45;&gt;Node24</title>
<g id="a_edge25_Node000023_Node000024"><a xlink:title=" ">
<path fill="none" stroke="#63b8ff" d="M398.87,-121.95C382.7,-122.04 366.14,-122.13 351.25,-122.21"/>
<polygon fill="#63b8ff" stroke="#63b8ff" points="398.89,-125.45 408.87,-121.9 398.85,-118.45 398.89,-125.45"/>
</a>
</g>
</g>
<!-- Node25 -->
<g id="Node000025" class="node">
<title>Node25</title>
<g id="a_Node000025"><a xlink:href="ad463x__fmcz_2src_2examples_2basic__example_2basic__example_8c.html#a72943dc9011d36293cb05ca5d7cb6899" target="_top" xlink:title="basic example main execution.">
<polygon fill="white" stroke="#666666" points="197,-132 77,-132 77,-113 197,-113 197,-132"/>
<text text-anchor="middle" x="137" y="-120" font-family="Helvetica,sans-Serif" font-size="10.00">basic_example_main</text>
</a>
</g>
</g>
<!-- Node24&#45;&gt;Node25 -->
<g id="edge26_Node000024_Node000025" class="edge">
<title>Node24&#45;&gt;Node25</title>
<g id="a_edge26_Node000024_Node000025"><a xlink:title=" ">
<path fill="none" stroke="#63b8ff" d="M233.37,-122.5C221.41,-122.5 208.94,-122.5 197.11,-122.5"/>
<polygon fill="#63b8ff" stroke="#63b8ff" points="233.72,-126 243.72,-122.5 233.72,-119 233.72,-126"/>
</a>
</g>
</g>
<!-- Node26 -->
<g id="Node000026" class="node">
<title>Node26</title>
<g id="a_Node000026"><a xlink:href="ad463x__fmcz_2src_2platform_2stm32_2main_8c.html#ae66f6b31b5ad750f1fe042a706a4e3d4" target="_top" xlink:title="Main function execution for STM32 platform.">
<polygon fill="white" stroke="#666666" points="41,-132 0,-132 0,-113 41,-113 41,-132"/>
<text text-anchor="middle" x="20.5" y="-120" font-family="Helvetica,sans-Serif" font-size="10.00">main</text>
</a>
</g>
</g>
<!-- Node25&#45;&gt;Node26 -->
<g id="edge27_Node000025_Node000026" class="edge">
<title>Node25&#45;&gt;Node26</title>
<g id="a_edge27_Node000025_Node000026"><a xlink:title=" ">
<path fill="none" stroke="#63b8ff" d="M66.55,-122.5C57.28,-122.5 48.46,-122.5 41.12,-122.5"/>
<polygon fill="#63b8ff" stroke="#63b8ff" points="66.74,-126 76.74,-122.5 66.74,-119 66.74,-126"/>
</a>
</g>
</g>
<!-- Node29 -->
<g id="Node000029" class="node">
<title>Node29</title>
<g id="a_Node000029"><a xlink:href="ad469x_8c.html#a947efb0cc9183e2dc0d9aeb3d697601b" target="_top" xlink:title="Read from device when converter has the channel sequencer activated. Enter register mode to read/writ...">
<polygon fill="white" stroke="#666666" points="362,-95 233,-95 233,-76 362,-76 362,-95"/>
<text text-anchor="middle" x="297.5" y="-83" font-family="Helvetica,sans-Serif" font-size="10.00">ad469x_seq_read_data</text>
</a>
</g>
</g>
<!-- Node28&#45;&gt;Node29 -->
<g id="edge30_Node000028_Node000029" class="edge">
<title>Node28&#45;&gt;Node29</title>
<g id="a_edge30_Node000028_Node000029"><a xlink:title=" ">
<path fill="none" stroke="#63b8ff" d="M424.9,-59.18C399.02,-64.57 368.69,-70.89 344.22,-75.98"/>
<polygon fill="#63b8ff" stroke="#63b8ff" points="425.87,-62.55 434.95,-57.09 424.44,-55.7 425.87,-62.55"/>
</a>
</g>
</g>
<!-- Node30 -->
<g id="Node000030" class="node">
<title>Node30</title>
<g id="a_Node000030"><a xlink:href="ad469x__evb_2src_2examples_2basic__example_2basic__example_8c.html#a72943dc9011d36293cb05ca5d7cb6899" target="_top" xlink:title="basic example main execution.">
<polygon fill="white" stroke="#666666" points="197,-58 77,-58 77,-39 197,-39 197,-58"/>
<text text-anchor="middle" x="137" y="-46" font-family="Helvetica,sans-Serif" font-size="10.00">basic_example_main</text>
</a>
</g>
</g>
<!-- Node28&#45;&gt;Node30 -->
<g id="edge33_Node000028_Node000030" class="edge">
<title>Node28&#45;&gt;Node30</title>
<g id="a_edge33_Node000028_Node000030"><a xlink:title=" ">
<path fill="none" stroke="#63b8ff" d="M417.96,-47.68C354.96,-47.87 258.86,-48.15 197.24,-48.33"/>
<polygon fill="#63b8ff" stroke="#63b8ff" points="418.17,-51.18 428.16,-47.65 418.15,-44.18 418.17,-51.18"/>
</a>
</g>
</g>
<!-- Node29&#45;&gt;Node30 -->
<g id="edge31_Node000029_Node000030" class="edge">
<title>Node29&#45;&gt;Node30</title>
<g id="a_edge31_Node000029_Node000030"><a xlink:title=" ">
<path fill="none" stroke="#63b8ff" d="M245.71,-73.64C224.14,-68.61 199.32,-62.82 178.95,-58.06"/>
<polygon fill="#63b8ff" stroke="#63b8ff" points="245.15,-77.11 255.68,-75.97 246.74,-70.29 245.15,-77.11"/>
</a>
</g>
</g>
<!-- Node31 -->
<g id="Node000031" class="node">
<title>Node31</title>
<g id="a_Node000031"><a xlink:href="ad469x__evb_2src_2examples_2iio__example_2iio__example_8c.html#a7d58fb707a91d4615d3bf949fabaa1e2" target="_top" xlink:title="IIO example main execution.">
<polygon fill="white" stroke="#666666" points="190.5,-95 83.5,-95 83.5,-76 190.5,-76 190.5,-95"/>
<text text-anchor="middle" x="137" y="-83" font-family="Helvetica,sans-Serif" font-size="10.00">iio_example_main</text>
</a>
</g>
</g>
<!-- Node29&#45;&gt;Node31 -->
<g id="edge32_Node000029_Node000031" class="edge">
<title>Node29&#45;&gt;Node31</title>
<g id="a_edge32_Node000029_Node000031"><a xlink:title=" ">
<path fill="none" stroke="#63b8ff" d="M222.72,-85.5C211.97,-85.5 201.1,-85.5 190.88,-85.5"/>
<polygon fill="#63b8ff" stroke="#63b8ff" points="222.95,-89 232.95,-85.5 222.95,-82 222.95,-89"/>
</a>
</g>
</g>
<!-- Node33 -->
<g id="Node000033" class="node">
<title>Node33</title>
<g id="a_Node000033"><a xlink:href="adaq7980__sdz_8c.html#ae66f6b31b5ad750f1fe042a706a4e3d4" target="_top" xlink:title=" ">
<polygon fill="white" stroke="#666666" points="318,-19 277,-19 277,0 318,0 318,-19"/>
<text text-anchor="middle" x="297.5" y="-7" font-family="Helvetica,sans-Serif" font-size="10.00">main</text>
</a>
</g>
</g>
<!-- Node32&#45;&gt;Node33 -->
<g id="edge35_Node000032_Node000033" class="edge">
<title>Node32&#45;&gt;Node33</title>
<g id="a_edge35_Node000032_Node000033"><a xlink:title=" ">
<path fill="none" stroke="#63b8ff" d="M418.06,-10.16C383.08,-9.96 341.94,-9.74 318.17,-9.61"/>
<polygon fill="#63b8ff" stroke="#63b8ff" points="418.19,-13.66 428.21,-10.21 418.23,-6.66 418.19,-13.66"/>
</a>
</g>
</g>
<!-- Node35&#45;&gt;Node7 -->
<g id="edge38_Node000035_Node000007" class="edge">
<title>Node35&#45;&gt;Node7</title>
<g id="a_edge38_Node000035_Node000007"><a xlink:title=" ">
<path fill="none" stroke="#63b8ff" d="M788.9,-314.48C767.64,-310.29 745.11,-305.84 725.93,-302.06"/>
<polygon fill="#63b8ff" stroke="#63b8ff" points="788.41,-317.95 798.89,-316.46 789.76,-311.09 788.41,-317.95"/>
</a>
</g>
</g>
<!-- Node35&#45;&gt;Node10 -->
<g id="edge39_Node000035_Node000010" class="edge">
<title>Node35&#45;&gt;Node10</title>
<g id="a_edge39_Node000035_Node000010"><a xlink:title=" ">
<path fill="none" stroke="#63b8ff" d="M841.8,-307.4C819.88,-287.55 785.35,-258.79 751,-240.5 739.86,-234.57 726.99,-229.76 715.17,-226.04"/>
<polygon fill="#63b8ff" stroke="#63b8ff" points="839.54,-310.08 849.27,-314.28 844.28,-304.93 839.54,-310.08"/>
</a>
</g>
</g>
<!-- Node35&#45;&gt;Node12 -->
<g id="edge40_Node000035_Node000012" class="edge">
<title>Node35&#45;&gt;Node12</title>
<g id="a_edge40_Node000035_Node000012"><a xlink:title=" ">
<path fill="none" stroke="#63b8ff" d="M850.84,-305.82C831.87,-276.17 795.39,-225.95 751,-198.5 744.61,-194.55 737.42,-191.42 730.11,-188.93"/>
<polygon fill="#63b8ff" stroke="#63b8ff" points="847.88,-307.69 856.16,-314.31 853.82,-303.98 847.88,-307.69"/>
</a>
</g>
</g>
<!-- Node35&#45;&gt;Node14 -->
<g id="edge41_Node000035_Node000014" class="edge">
<title>Node35&#45;&gt;Node14</title>
<g id="a_edge41_Node000035_Node000014"><a xlink:title=" ">
<path fill="none" stroke="#63b8ff" d="M826.96,-349.29C799.92,-363.14 765.88,-380.1 751,-385.5 736.43,-390.79 719.67,-395.03 705.85,-398.06"/>
<polygon fill="#63b8ff" stroke="#63b8ff" points="828.89,-352.23 836.19,-344.54 825.69,-346 828.89,-352.23"/>
</a>
</g>
</g>
<!-- Node35&#45;&gt;Node15 -->
<g id="edge45_Node000035_Node000015" class="edge">
<title>Node35&#45;&gt;Node15</title>
<g id="a_edge45_Node000035_Node000015"><a xlink:title=" ">
<path fill="none" stroke="#63b8ff" d="M833.13,-309.01C780.88,-278.28 675.49,-228.52 602,-274.5 570.99,-293.9 590.09,-320.98 566,-348.5 548.12,-368.92 520.95,-384.98 502.62,-394.35"/>
<polygon fill="#63b8ff" stroke="#63b8ff" points="831.57,-312.16 841.94,-314.32 835.18,-306.16 831.57,-312.16"/>
</a>
</g>
</g>
<!-- Node35&#45;&gt;Node16 -->
<g id="edge42_Node000035_Node000016" class="edge">
<title>Node35&#45;&gt;Node16</title>
<g id="a_edge42_Node000035_Node000016"><a xlink:title=" ">
<path fill="none" stroke="#63b8ff" d="M788.68,-329.5C770.61,-329.5 751.65,-329.5 734.61,-329.5"/>
<polygon fill="#63b8ff" stroke="#63b8ff" points="788.89,-333 798.89,-329.5 788.89,-326 788.89,-333"/>
</a>
</g>
</g>
<!-- Node35&#45;&gt;Node18 -->
<g id="edge43_Node000035_Node000018" class="edge">
<title>Node35&#45;&gt;Node18</title>
<g id="a_edge43_Node000035_Node000018"><a xlink:title=" ">
<path fill="none" stroke="#63b8ff" d="M789.08,-344.48C765.93,-349.05 741.27,-353.92 721.03,-357.91"/>
<polygon fill="#63b8ff" stroke="#63b8ff" points="789.76,-347.91 798.89,-342.54 788.41,-341.05 789.76,-347.91"/>
</a>
</g>
</g>
<!-- Node35&#45;&gt;Node19 -->
<g id="edge44_Node000035_Node000019" class="edge">
<title>Node35&#45;&gt;Node19</title>
<g id="a_edge44_Node000035_Node000019"><a xlink:title=" ">
<path fill="none" stroke="#63b8ff" d="M817.26,-349.19C806.64,-354.83 795.91,-361.63 787,-369.5 765.67,-388.36 774.39,-406.25 751,-422.5 746.04,-425.95 740.48,-428.74 734.71,-431"/>
<polygon fill="#63b8ff" stroke="#63b8ff" points="819.15,-352.16 826.51,-344.54 816,-345.91 819.15,-352.16"/>
</a>
</g>
</g>
<!-- Node35&#45;&gt;Node21 -->
<g id="edge46_Node000035_Node000021" class="edge">
<title>Node35&#45;&gt;Node21</title>
<g id="a_edge46_Node000035_Node000021"><a xlink:title=" ">
<path fill="none" stroke="#63b8ff" d="M813.46,-349.24C803.77,-354.7 794.37,-361.4 787,-369.5 757.99,-401.35 783.52,-431.25 751,-459.5 736.12,-472.42 713.45,-476.38 697.22,-477.44"/>
<polygon fill="#63b8ff" stroke="#63b8ff" points="815.15,-352.31 822.4,-344.58 811.91,-346.1 815.15,-352.31"/>
</a>
</g>
</g>
<!-- Node35&#45;&gt;Node22 -->
<g id="edge47_Node000035_Node000022" class="edge">
<title>Node35&#45;&gt;Node22</title>
<g id="a_edge47_Node000035_Node000022"><a xlink:title=" ">
<path fill="none" stroke="#63b8ff" d="M853.27,-305.18C835.3,-269.91 798.02,-204.13 751,-161.5 739.91,-151.45 725.85,-143.01 713,-136.51"/>
<polygon fill="#63b8ff" stroke="#63b8ff" points="850.22,-306.9 857.82,-314.27 856.48,-303.77 850.22,-306.9"/>
</a>
</g>
</g>
</g>
</svg>

<g id="navigator" transform="translate(0 0)" fill="#404254">
  <rect fill="#f2f5e9" fill-opacity="0.5" stroke="#606060" stroke-width=".5" x="0" y="0" width="60" height="60"/>
  <use id="zoomplus" xlink:href="#zoomPlus" x="17" y="9" onmousedown="handleZoom(evt,'in')"/>
  <use id="zoomminus" xlink:href="#zoomMin" x="42" y="9" onmousedown="handleZoom(evt,'out')"/>
  <use id="reset" xlink:href="#resetDef" x="30" y="36" onmousedown="handleReset()"/>
   <use id="arrowup" xlink:href="#arrowUp" x="0" y="0" onmousedown="handlePan(0,-1)"/>
  <use id="arrowright" xlink:href="#arrowRight" x="0" y="0" onmousedown="handlePan(1,0)"/>
  <use id="arrowdown" xlink:href="#arrowDown" x="0" y="0" onmousedown="handlePan(0,1)"/>
  <use id="arrowleft" xlink:href="#arrowLeft" x="0" y="0" onmousedown="handlePan(-1,0)"/>
</g>
<svg viewBox="0 0 15 15" width="100%" height="30px" preserveAspectRatio="xMaxYMin meet">
 <g id="arrow_out" transform="scale(0.3 0.3)">
  <a xlink:href="axi__dmac_8c_adcd9793436f4c2884b5a0ea976ee3a11_icgraph_org.svg" target="_base">
   <rect id="button" ry="5" rx="5" y="6" x="6" height="38" width="38"
        fill="#f2f5e9" fill-opacity="0.5" stroke="#606060" stroke-width="1.0"/>
   <path id="arrow"
     d="M 11.500037,31.436501 C 11.940474,20.09759 22.043105,11.32322 32.158766,21.979434 L 37.068811,17.246167 C 37.068811,17.246167 37.088388,32 37.088388,32 L 22.160133,31.978069 C 22.160133,31.978069 26.997745,27.140456 26.997745,27.140456 C 18.528582,18.264221 13.291696,25.230495 11.500037,31.436501 z"
     style="fill:#404040;"/>
  </a>
 </g>
</svg>

<style type='text/css'>
<![CDATA[
[data-mouse-over-selected='false'] { opacity: 0.7; }
[data-mouse-over-selected='true']  { opacity: 1.0; }
]]>
</style>
<script type="application/ecmascript"><![CDATA[
document.addEventListener('DOMContentLoaded', (event) => {
  highlightEdges();
  highlightAdjacentNodes();
});
]]></script>
</svg>
