<?xml version="1.0" encoding="UTF-8" standalone="no"?>
<!DOCTYPE svg PUBLIC "-//W3C//DTD SVG 1.1//EN"
 "http://www.w3.org/Graphics/SVG/1.1/DTD/svg11.dtd">
<!-- Generated by graphviz version 2.43.0 (0)
 -->
<!-- Title: drivers/axi_core/axi_pwmgen/axi_pwm_extra.h Pages: 1 -->
<svg width="1690pt" height="192pt"
 viewBox="0.00 0.00 1689.50 192.00" xmlns="http://www.w3.org/2000/svg" xmlns:xlink="http://www.w3.org/1999/xlink">
<g id="graph0" class="graph" transform="scale(1 1) rotate(0) translate(4 188)">
<title>drivers/axi_core/axi_pwmgen/axi_pwm_extra.h</title>
<!-- Node1 -->
<g id="Node000001" class="node">
<title>Node1</title>
<g id="a_Node000001"><a xlink:title=" ">
<polygon fill="#999999" stroke="#666666" points="908,-184 757,-184 757,-154 908,-154 908,-184"/>
<text text-anchor="start" x="765" y="-172" font-family="Helvetica,sans-Serif" font-size="10.00">drivers/axi_core/axi</text>
<text text-anchor="middle" x="832.5" y="-161" font-family="Helvetica,sans-Serif" font-size="10.00">_pwmgen/axi_pwm_extra.h</text>
</a>
</g>
</g>
<!-- Node2 -->
<g id="Node000002" class="node">
<title>Node2</title>
<g id="a_Node000002"><a xlink:href="axi__pwm_8c.html" target="_top" xlink:title=" ">
<polygon fill="white" stroke="#666666" points="119,-112.5 0,-112.5 0,-82.5 119,-82.5 119,-112.5"/>
<text text-anchor="start" x="8" y="-100.5" font-family="Helvetica,sans-Serif" font-size="10.00">drivers/axi_core/axi</text>
<text text-anchor="middle" x="59.5" y="-89.5" font-family="Helvetica,sans-Serif" font-size="10.00">_pwmgen/axi_pwm.c</text>
</a>
</g>
</g>
<!-- Node1&#45;&gt;Node2 -->
<g id="edge1_Node000001_Node000002" class="edge">
<title>Node1&#45;&gt;Node2</title>
<g id="a_edge1_Node000001_Node000002"><a xlink:title=" ">
<path fill="none" stroke="#63b8ff" d="M746.72,-167.54C613.46,-165.56 349.06,-156.58 128.5,-118 120.53,-116.61 112.16,-114.66 104.1,-112.54"/>
<polygon fill="#63b8ff" stroke="#63b8ff" points="746.82,-171.04 756.87,-167.68 746.92,-164.04 746.82,-171.04"/>
</a>
</g>
</g>
<!-- Node3 -->
<g id="Node000003" class="node">
<title>Node3</title>
<g id="a_Node000003"><a xlink:href="ad463x__fmcz_2src_2platform_2xilinx_2parameters_8h.html" target="_top" xlink:title="Definitions specific to xilinx platform used by ad463x_fmcz project.">
<polygon fill="white" stroke="#666666" points="261.5,-118 137.5,-118 137.5,-77 261.5,-77 261.5,-118"/>
<text text-anchor="start" x="145.5" y="-106" font-family="Helvetica,sans-Serif" font-size="10.00">projects/ad463x_fmcz</text>
<text text-anchor="start" x="145.5" y="-95" font-family="Helvetica,sans-Serif" font-size="10.00">/src/platform/xilinx</text>
<text text-anchor="middle" x="199.5" y="-84" font-family="Helvetica,sans-Serif" font-size="10.00">/parameters.h</text>
</a>
</g>
</g>
<!-- Node1&#45;&gt;Node3 -->
<g id="edge2_Node000001_Node000003" class="edge">
<title>Node1&#45;&gt;Node3</title>
<g id="a_edge2_Node000001_Node000003"><a xlink:title=" ">
<path fill="none" stroke="#63b8ff" d="M746.82,-165.15C636.07,-160.38 437.6,-148.13 270.5,-118 267.61,-117.48 264.66,-116.89 261.69,-116.26"/>
<polygon fill="#63b8ff" stroke="#63b8ff" points="746.79,-168.65 756.93,-165.58 747.09,-161.66 746.79,-168.65"/>
</a>
</g>
</g>
<!-- Node5 -->
<g id="Node000005" class="node">
<title>Node5</title>
<g id="a_Node000005"><a xlink:href="ad469x__evb_2src_2platform_2xilinx_2parameters_8h.html" target="_top" xlink:title="Definitions specific to xilinx platform used by ad469x_evb project.">
<polygon fill="white" stroke="#666666" points="397.5,-118 279.5,-118 279.5,-77 397.5,-77 397.5,-118"/>
<text text-anchor="start" x="287.5" y="-106" font-family="Helvetica,sans-Serif" font-size="10.00">projects/ad469x_evb</text>
<text text-anchor="start" x="287.5" y="-95" font-family="Helvetica,sans-Serif" font-size="10.00">/src/platform/xilinx</text>
<text text-anchor="middle" x="338.5" y="-84" font-family="Helvetica,sans-Serif" font-size="10.00">/parameters.h</text>
</a>
</g>
</g>
<!-- Node1&#45;&gt;Node5 -->
<g id="edge4_Node000001_Node000005" class="edge">
<title>Node1&#45;&gt;Node5</title>
<g id="a_edge4_Node000001_Node000005"><a xlink:title=" ">
<path fill="none" stroke="#63b8ff" d="M746.86,-162.06C660.38,-155.1 523.26,-141.43 406.5,-118 403.61,-117.42 400.66,-116.78 397.7,-116.09"/>
<polygon fill="#63b8ff" stroke="#63b8ff" points="746.64,-165.55 756.89,-162.85 747.2,-158.57 746.64,-165.55"/>
</a>
</g>
</g>
<!-- Node7 -->
<g id="Node000007" class="node">
<title>Node7</title>
<g id="a_Node000007"><a xlink:href="ad713x__fmc_8c.html" target="_top" xlink:title="Implementation of Main Function.">
<polygon fill="white" stroke="#666666" points="539.5,-112.5 415.5,-112.5 415.5,-82.5 539.5,-82.5 539.5,-112.5"/>
<text text-anchor="start" x="423.5" y="-100.5" font-family="Helvetica,sans-Serif" font-size="10.00">projects/ad713x_fmcz</text>
<text text-anchor="middle" x="477.5" y="-89.5" font-family="Helvetica,sans-Serif" font-size="10.00">/src/ad713x_fmc.c</text>
</a>
</g>
</g>
<!-- Node1&#45;&gt;Node7 -->
<g id="edge6_Node000001_Node000007" class="edge">
<title>Node1&#45;&gt;Node7</title>
<g id="a_edge6_Node000001_Node000007"><a xlink:title=" ">
<path fill="none" stroke="#63b8ff" d="M746.8,-155.06C690.23,-145.99 614.62,-132.87 548.5,-118 541.27,-116.37 533.67,-114.48 526.24,-112.53"/>
<polygon fill="#63b8ff" stroke="#63b8ff" points="746.35,-158.53 756.78,-156.65 747.45,-151.62 746.35,-158.53"/>
</a>
</g>
</g>
<!-- Node8 -->
<g id="Node000008" class="node">
<title>Node8</title>
<g id="a_Node000008"><a xlink:href="ad738x__fmcz_2src_2platform_2lattice_2parameters_8h.html" target="_top" xlink:title="Definitions specific to Lattice platform used by ad738x_fmcz project.">
<polygon fill="white" stroke="#666666" points="681.5,-118 557.5,-118 557.5,-77 681.5,-77 681.5,-118"/>
<text text-anchor="start" x="565.5" y="-106" font-family="Helvetica,sans-Serif" font-size="10.00">projects/ad738x_fmcz</text>
<text text-anchor="start" x="565.5" y="-95" font-family="Helvetica,sans-Serif" font-size="10.00">/src/platform/lattice</text>
<text text-anchor="middle" x="619.5" y="-84" font-family="Helvetica,sans-Serif" font-size="10.00">/parameters.h</text>
</a>
</g>
</g>
<!-- Node1&#45;&gt;Node8 -->
<g id="edge7_Node000001_Node000008" class="edge">
<title>Node1&#45;&gt;Node8</title>
<g id="a_edge7_Node000001_Node000008"><a xlink:title=" ">
<path fill="none" stroke="#63b8ff" d="M779.82,-150.81C749.41,-140.89 711.06,-128.37 679.49,-118.07"/>
<polygon fill="#63b8ff" stroke="#63b8ff" points="778.8,-154.16 789.4,-153.94 780.98,-147.51 778.8,-154.16"/>
</a>
</g>
</g>
<!-- Node10 -->
<g id="Node000010" class="node">
<title>Node10</title>
<g id="a_Node000010"><a xlink:href="ad738x__fmcz_2src_2platform_2xilinx_2parameters_8h.html" target="_top" xlink:title="Definitions specific to xilinx platform used by ad463x_fmcz project.">
<polygon fill="white" stroke="#666666" points="823.5,-118 699.5,-118 699.5,-77 823.5,-77 823.5,-118"/>
<text text-anchor="start" x="707.5" y="-106" font-family="Helvetica,sans-Serif" font-size="10.00">projects/ad738x_fmcz</text>
<text text-anchor="start" x="707.5" y="-95" font-family="Helvetica,sans-Serif" font-size="10.00">/src/platform/xilinx</text>
<text text-anchor="middle" x="761.5" y="-84" font-family="Helvetica,sans-Serif" font-size="10.00">/parameters.h</text>
</a>
</g>
</g>
<!-- Node1&#45;&gt;Node10 -->
<g id="edge9_Node000001_Node000010" class="edge">
<title>Node1&#45;&gt;Node10</title>
<g id="a_edge9_Node000001_Node000010"><a xlink:title=" ">
<path fill="none" stroke="#63b8ff" d="M810.73,-146.69C801.41,-137.57 790.61,-126.99 781.5,-118.07"/>
<polygon fill="#63b8ff" stroke="#63b8ff" points="808.54,-149.44 818.13,-153.94 813.43,-144.44 808.54,-149.44"/>
</a>
</g>
</g>
<!-- Node12 -->
<g id="Node000012" class="node">
<title>Node12</title>
<g id="a_Node000012"><a xlink:href="ad7606x-fmc_2src_2common__data_8c.html" target="_top" xlink:title="Definitions of initialization parameters common for all project variants.">
<polygon fill="white" stroke="#666666" points="965,-112.5 842,-112.5 842,-82.5 965,-82.5 965,-112.5"/>
<text text-anchor="start" x="850" y="-100.5" font-family="Helvetica,sans-Serif" font-size="10.00">projects/ad7606x&#45;fmc</text>
<text text-anchor="middle" x="903.5" y="-89.5" font-family="Helvetica,sans-Serif" font-size="10.00">/src/common_data.c</text>
</a>
</g>
</g>
<!-- Node1&#45;&gt;Node12 -->
<g id="edge11_Node000001_Node000012" class="edge">
<title>Node1&#45;&gt;Node12</title>
<g id="a_edge11_Node000001_Node000012"><a xlink:title=" ">
<path fill="none" stroke="#63b8ff" d="M854.29,-146.67C865.62,-135.58 879.15,-122.34 889.15,-112.54"/>
<polygon fill="#63b8ff" stroke="#63b8ff" points="851.57,-144.44 846.87,-153.94 856.46,-149.44 851.57,-144.44"/>
</a>
</g>
</g>
<!-- Node13 -->
<g id="Node000013" class="node">
<title>Node13</title>
<g id="a_Node000013"><a xlink:href="ad7616__sdz_8c.html" target="_top" xlink:title="Implementation of Main Function.">
<polygon fill="white" stroke="#666666" points="1098,-112.5 983,-112.5 983,-82.5 1098,-82.5 1098,-112.5"/>
<text text-anchor="start" x="991" y="-100.5" font-family="Helvetica,sans-Serif" font-size="10.00">projects/ad7616&#45;sdz</text>
<text text-anchor="middle" x="1040.5" y="-89.5" font-family="Helvetica,sans-Serif" font-size="10.00">/src/ad7616_sdz.c</text>
</a>
</g>
</g>
<!-- Node1&#45;&gt;Node13 -->
<g id="edge12_Node000001_Node000013" class="edge">
<title>Node1&#45;&gt;Node13</title>
<g id="a_edge12_Node000001_Node000013"><a xlink:title=" ">
<path fill="none" stroke="#63b8ff" d="M884.22,-150.72C919.45,-138.95 965.5,-123.56 998.47,-112.54"/>
<polygon fill="#63b8ff" stroke="#63b8ff" points="882.97,-147.45 874.59,-153.94 885.19,-154.09 882.97,-147.45"/>
</a>
</g>
</g>
<!-- Node14 -->
<g id="Node000014" class="node">
<title>Node14</title>
<g id="a_Node000014"><a xlink:href="ad796x__fmcz_2src_2common_2common__data_8c.html" target="_top" xlink:title="Defines common data to be used by iio examples.">
<polygon fill="white" stroke="#666666" points="1277,-112.5 1116,-112.5 1116,-82.5 1277,-82.5 1277,-112.5"/>
<text text-anchor="start" x="1124" y="-100.5" font-family="Helvetica,sans-Serif" font-size="10.00">projects/ad796x_fmcz</text>
<text text-anchor="middle" x="1196.5" y="-89.5" font-family="Helvetica,sans-Serif" font-size="10.00">/src/common/common_data.c</text>
</a>
</g>
</g>
<!-- Node1&#45;&gt;Node14 -->
<g id="edge13_Node000001_Node000014" class="edge">
<title>Node1&#45;&gt;Node14</title>
<g id="a_edge13_Node000001_Node000014"><a xlink:title=" ">
<path fill="none" stroke="#63b8ff" d="M918.12,-153.12C972.22,-143.54 1043.56,-130.56 1106.5,-118 1115.12,-116.28 1124.2,-114.4 1133.13,-112.5"/>
<polygon fill="#63b8ff" stroke="#63b8ff" points="917.46,-149.68 908.22,-154.87 918.68,-156.58 917.46,-149.68"/>
</a>
</g>
</g>
<!-- Node15 -->
<g id="Node000015" class="node">
<title>Node15</title>
<g id="a_Node000015"><a xlink:href="adaq7980__sdz_8c.html" target="_top" xlink:title="Implementation of Main Function.">
<polygon fill="white" stroke="#666666" points="1423.5,-112.5 1295.5,-112.5 1295.5,-82.5 1423.5,-82.5 1423.5,-112.5"/>
<text text-anchor="start" x="1303.5" y="-100.5" font-family="Helvetica,sans-Serif" font-size="10.00">projects/adaq7980_sdz</text>
<text text-anchor="middle" x="1359.5" y="-89.5" font-family="Helvetica,sans-Serif" font-size="10.00">/src/adaq7980_sdz.c</text>
</a>
</g>
</g>
<!-- Node1&#45;&gt;Node15 -->
<g id="edge14_Node000001_Node000015" class="edge">
<title>Node1&#45;&gt;Node15</title>
<g id="a_edge14_Node000001_Node000015"><a xlink:title=" ">
<path fill="none" stroke="#63b8ff" d="M918.39,-162.32C1009.92,-155.38 1158.78,-141.56 1285.5,-118 1293.6,-116.49 1302.11,-114.57 1310.37,-112.53"/>
<polygon fill="#63b8ff" stroke="#63b8ff" points="918.06,-158.83 908.35,-163.07 918.58,-165.81 918.06,-158.83"/>
</a>
</g>
</g>
<!-- Node16 -->
<g id="Node000016" class="node">
<title>Node16</title>
<g id="a_Node000016"><a xlink:href="cn0561_8c.html" target="_top" xlink:title="Implementation of Main Function.">
<polygon fill="white" stroke="#666666" points="1553,-112.5 1442,-112.5 1442,-82.5 1553,-82.5 1553,-112.5"/>
<text text-anchor="start" x="1450" y="-100.5" font-family="Helvetica,sans-Serif" font-size="10.00">projects/cn0561/src</text>
<text text-anchor="middle" x="1497.5" y="-89.5" font-family="Helvetica,sans-Serif" font-size="10.00">/cn0561.c</text>
</a>
</g>
</g>
<!-- Node1&#45;&gt;Node16 -->
<g id="edge15_Node000001_Node000016" class="edge">
<title>Node1&#45;&gt;Node16</title>
<g id="a_edge15_Node000001_Node000016"><a xlink:title=" ">
<path fill="none" stroke="#63b8ff" d="M918.34,-166.45C1035.49,-163.07 1251.56,-152.29 1432.5,-118 1439.91,-116.6 1447.68,-114.68 1455.16,-112.58"/>
<polygon fill="#63b8ff" stroke="#63b8ff" points="917.91,-162.96 908.01,-166.74 918.1,-169.96 917.91,-162.96"/>
</a>
</g>
</g>
<!-- Node17 -->
<g id="Node000017" class="node">
<title>Node17</title>
<g id="a_Node000017"><a xlink:href="pulsar-adc_2src_2platform_2xilinx_2parameters_8h.html" target="_top" xlink:title="Definitions specific to xilinx platform used by pulsar&#45;adc project.">
<polygon fill="white" stroke="#666666" points="1681.5,-118 1571.5,-118 1571.5,-77 1681.5,-77 1681.5,-118"/>
<text text-anchor="start" x="1579.5" y="-106" font-family="Helvetica,sans-Serif" font-size="10.00">projects/pulsar&#45;adc</text>
<text text-anchor="start" x="1579.5" y="-95" font-family="Helvetica,sans-Serif" font-size="10.00">/src/platform/xilinx</text>
<text text-anchor="middle" x="1626.5" y="-84" font-family="Helvetica,sans-Serif" font-size="10.00">/parameters.h</text>
</a>
</g>
</g>
<!-- Node1&#45;&gt;Node17 -->
<g id="edge16_Node000001_Node000017" class="edge">
<title>Node1&#45;&gt;Node17</title>
<g id="a_edge16_Node000001_Node000017"><a xlink:title=" ">
<path fill="none" stroke="#63b8ff" d="M918.11,-168.41C1055.28,-167.66 1332.29,-160.38 1562.5,-118 1565.36,-117.47 1568.26,-116.87 1571.19,-116.19"/>
<polygon fill="#63b8ff" stroke="#63b8ff" points="918.06,-164.91 908.08,-168.45 918.09,-171.91 918.06,-164.91"/>
</a>
</g>
</g>
<!-- Node4 -->
<g id="Node000004" class="node">
<title>Node4</title>
<g id="a_Node000004"><a xlink:href="ad463x__fmcz_2src_2platform_2xilinx_2parameters_8c.html" target="_top" xlink:title="Definition of xilinx platform data used by ad463x_fmcz project.">
<polygon fill="white" stroke="#666666" points="261.5,-41 137.5,-41 137.5,0 261.5,0 261.5,-41"/>
<text text-anchor="start" x="145.5" y="-29" font-family="Helvetica,sans-Serif" font-size="10.00">projects/ad463x_fmcz</text>
<text text-anchor="start" x="145.5" y="-18" font-family="Helvetica,sans-Serif" font-size="10.00">/src/platform/xilinx</text>
<text text-anchor="middle" x="199.5" y="-7" font-family="Helvetica,sans-Serif" font-size="10.00">/parameters.c</text>
</a>
</g>
</g>
<!-- Node3&#45;&gt;Node4 -->
<g id="edge3_Node000003_Node000004" class="edge">
<title>Node3&#45;&gt;Node4</title>
<g id="a_edge3_Node000003_Node000004"><a xlink:title=" ">
<path fill="none" stroke="#63b8ff" d="M199.5,-66.69C199.5,-58.08 199.5,-48.9 199.5,-41.07"/>
<polygon fill="#63b8ff" stroke="#63b8ff" points="196,-66.79 199.5,-76.79 203,-66.79 196,-66.79"/>
</a>
</g>
</g>
<!-- Node6 -->
<g id="Node000006" class="node">
<title>Node6</title>
<g id="a_Node000006"><a xlink:href="ad469x__evb_2src_2platform_2xilinx_2parameters_8c.html" target="_top" xlink:title="Definition of xilinx platform data used by ad469x_evb project.">
<polygon fill="white" stroke="#666666" points="397.5,-41 279.5,-41 279.5,0 397.5,0 397.5,-41"/>
<text text-anchor="start" x="287.5" y="-29" font-family="Helvetica,sans-Serif" font-size="10.00">projects/ad469x_evb</text>
<text text-anchor="start" x="287.5" y="-18" font-family="Helvetica,sans-Serif" font-size="10.00">/src/platform/xilinx</text>
<text text-anchor="middle" x="338.5" y="-7" font-family="Helvetica,sans-Serif" font-size="10.00">/parameters.c</text>
</a>
</g>
</g>
<!-- Node5&#45;&gt;Node6 -->
<g id="edge5_Node000005_Node000006" class="edge">
<title>Node5&#45;&gt;Node6</title>
<g id="a_edge5_Node000005_Node000006"><a xlink:title=" ">
<path fill="none" stroke="#63b8ff" d="M338.5,-66.69C338.5,-58.08 338.5,-48.9 338.5,-41.07"/>
<polygon fill="#63b8ff" stroke="#63b8ff" points="335,-66.79 338.5,-76.79 342,-66.79 335,-66.79"/>
</a>
</g>
</g>
<!-- Node9 -->
<g id="Node000009" class="node">
<title>Node9</title>
<g id="a_Node000009"><a xlink:href="ad738x__fmcz_2src_2platform_2lattice_2parameters_8c.html" target="_top" xlink:title="Definition of Lattice platform data used by ad738x_fmcz project.">
<polygon fill="white" stroke="#666666" points="681.5,-41 557.5,-41 557.5,0 681.5,0 681.5,-41"/>
<text text-anchor="start" x="565.5" y="-29" font-family="Helvetica,sans-Serif" font-size="10.00">projects/ad738x_fmcz</text>
<text text-anchor="start" x="565.5" y="-18" font-family="Helvetica,sans-Serif" font-size="10.00">/src/platform/lattice</text>
<text text-anchor="middle" x="619.5" y="-7" font-family="Helvetica,sans-Serif" font-size="10.00">/parameters.c</text>
</a>
</g>
</g>
<!-- Node8&#45;&gt;Node9 -->
<g id="edge8_Node000008_Node000009" class="edge">
<title>Node8&#45;&gt;Node9</title>
<g id="a_edge8_Node000008_Node000009"><a xlink:title=" ">
<path fill="none" stroke="#63b8ff" d="M619.5,-66.69C619.5,-58.08 619.5,-48.9 619.5,-41.07"/>
<polygon fill="#63b8ff" stroke="#63b8ff" points="616,-66.79 619.5,-76.79 623,-66.79 616,-66.79"/>
</a>
</g>
</g>
<!-- Node11 -->
<g id="Node000011" class="node">
<title>Node11</title>
<g id="a_Node000011"><a xlink:href="ad738x__fmcz_2src_2platform_2xilinx_2parameters_8c.html" target="_top" xlink:title="Definition of xilinx platform data used by ad463x_fmcz project.">
<polygon fill="white" stroke="#666666" points="823.5,-41 699.5,-41 699.5,0 823.5,0 823.5,-41"/>
<text text-anchor="start" x="707.5" y="-29" font-family="Helvetica,sans-Serif" font-size="10.00">projects/ad738x_fmcz</text>
<text text-anchor="start" x="707.5" y="-18" font-family="Helvetica,sans-Serif" font-size="10.00">/src/platform/xilinx</text>
<text text-anchor="middle" x="761.5" y="-7" font-family="Helvetica,sans-Serif" font-size="10.00">/parameters.c</text>
</a>
</g>
</g>
<!-- Node10&#45;&gt;Node11 -->
<g id="edge10_Node000010_Node000011" class="edge">
<title>Node10&#45;&gt;Node11</title>
<g id="a_edge10_Node000010_Node000011"><a xlink:title=" ">
<path fill="none" stroke="#63b8ff" d="M761.5,-66.69C761.5,-58.08 761.5,-48.9 761.5,-41.07"/>
<polygon fill="#63b8ff" stroke="#63b8ff" points="758,-66.79 761.5,-76.79 765,-66.79 758,-66.79"/>
</a>
</g>
</g>
<!-- Node18 -->
<g id="Node000018" class="node">
<title>Node18</title>
<g id="a_Node000018"><a xlink:href="pulsar-adc_2src_2platform_2xilinx_2parameters_8c.html" target="_top" xlink:title="Definition of xilinx platform data used by pulsar&#45;adc project.">
<polygon fill="white" stroke="#666666" points="1681.5,-41 1571.5,-41 1571.5,0 1681.5,0 1681.5,-41"/>
<text text-anchor="start" x="1579.5" y="-29" font-family="Helvetica,sans-Serif" font-size="10.00">projects/pulsar&#45;adc</text>
<text text-anchor="start" x="1579.5" y="-18" font-family="Helvetica,sans-Serif" font-size="10.00">/src/platform/xilinx</text>
<text text-anchor="middle" x="1626.5" y="-7" font-family="Helvetica,sans-Serif" font-size="10.00">/parameters.c</text>
</a>
</g>
</g>
<!-- Node17&#45;&gt;Node18 -->
<g id="edge17_Node000017_Node000018" class="edge">
<title>Node17&#45;&gt;Node18</title>
<g id="a_edge17_Node000017_Node000018"><a xlink:title=" ">
<path fill="none" stroke="#63b8ff" d="M1626.5,-66.69C1626.5,-58.08 1626.5,-48.9 1626.5,-41.07"/>
<polygon fill="#63b8ff" stroke="#63b8ff" points="1623,-66.79 1626.5,-76.79 1630,-66.79 1623,-66.79"/>
</a>
</g>
</g>
</g>
</svg>
