<?xml version="1.0" encoding="UTF-8" standalone="no"?>
<!DOCTYPE svg PUBLIC "-//W3C//DTD SVG 1.1//EN"
 "http://www.w3.org/Graphics/SVG/1.1/DTD/svg11.dtd">
<!-- Generated by graphviz version 2.43.0 (0)
 -->
<!-- Title: drivers/platform Pages: 1 -->
<!--zoomable 149 -->

<svg id="main" version="1.1" xmlns="http://www.w3.org/2000/svg" xmlns:xlink="http://www.w3.org/1999/xlink" xml:space="preserve" onload="init(evt)">

<style type="text/css"><![CDATA[
.node, .edge {opacity: 0.7;}
.node.selected, .edge.selected {opacity: 1;}
.edge:hover path { stroke: red; }
.edge:hover polygon { stroke: red; fill: red; }
]]></style>

<defs>
  <circle id="rim" cx="0" cy="0" r="7"/>
  <circle id="rim2" cx="0" cy="0" r="3.5"/>
  <g id="zoomPlus">
    <use xlink:href="#rim" fill="#404040"><set attributeName="fill" to="#808080" begin="zoomplus.mouseover" end="zoomplus.mouseout"/></use>
    <path d="M-4,0h8M0,-4v8" fill="none" stroke="white" stroke-width="1.5" pointer-events="none"/>
  </g>
  <g id="zoomMin">
    <use xlink:href="#rim" fill="#404040"><set attributeName="fill" to="#808080" begin="zoomminus.mouseover" end="zoomminus.mouseout"/></use>
    <path d="M-4,0h8" fill="none" stroke="white" stroke-width="1.5" pointer-events="none"/>
  </g>
  <g id="arrowUp" transform="translate(30 24)">
    <use xlink:href="#rim"/>
    <path pointer-events="none" fill="none" stroke="white" stroke-width="1.5" d="M0,-3.0v7 M-2.5,-0.5L0,-3.0L2.5,-0.5"/>
  </g>
  <g id="arrowRight" transform="rotate(90) translate(36 -43)">
    <use xlink:href="#rim"/>
    <path pointer-events="none" fill="none" stroke="white" stroke-width="1.5" d="M0,-3.0v7 M-2.5,-0.5L0,-3.0L2.5,-0.5"/>
  </g>
  <g id="arrowDown" transform="rotate(180) translate(-30 -48)">
    <use xlink:href="#rim"/>
    <path pointer-events="none" fill="none" stroke="white" stroke-width="1.5" d="M0,-3.0v7 M-2.5,-0.5L0,-3.0L2.5,-0.5"/>
  </g>
  <g id="arrowLeft" transform="rotate(270) translate(-36 17)">
    <use xlink:href="#rim"/>
    <path pointer-events="none" fill="none" stroke="white" stroke-width="1.5" d="M0,-3.0v7 M-2.5,-0.5L0,-3.0L2.5,-0.5"/>
  </g>
  <g id="resetDef">
    <use xlink:href="#rim2" fill="#404040"><set attributeName="fill" to="#808080" begin="reset.mouseover" end="reset.mouseout"/></use>
  </g>
</defs>
<script type="application/ecmascript">
var viewWidth = 1095;
var viewHeight = 149;
var sectionId = 'dynsection-0';
</script>
<script type="application/ecmascript" xlink:href="svg.min.js"/>
<svg id="graph" class="graph">
<g id="viewport">
<title>drivers/platform</title>
<g id="clust1" class="cluster">
<title>clusterdir_14bc92f4b96c8519b376567118ac28b3</title>
<g id="a_clust1"><a xlink:href="dir_14bc92f4b96c8519b376567118ac28b3.html" target="_top" xlink:title="drivers">
<polygon fill="#edf0f7" stroke="#404040" stroke-dasharray="5,2" points="8,-8 8,-133 1027,-133 1027,-8 8,-8"/>
<text text-anchor="middle" x="517.5" y="-121" font-family="Helvetica,sans-Serif" font-size="10.00">drivers</text>
</a>
</g>
</g>
<g id="clust2" class="cluster">
<title>clusterdir_481058711dd13ded877a88795a4a55f2</title>
<g id="a_clust2"><a xlink:href="dir_481058711dd13ded877a88795a4a55f2.html" target="_top">
<polygon fill="#edf0f7" stroke="#404040" stroke-width="2" points="16,-16 16,-106 1019,-106 1019,-16 16,-16"/>
</a>
</g>
</g>
<!-- dir_481058711dd13ded877a88795a4a55f2 -->
<g id="node1" class="node">
<title>dir_481058711dd13ded877a88795a4a55f2</title>
<text text-anchor="middle" x="981" y="-86" font-family="Helvetica,sans-Serif" font-size="10.00">platform</text>
</g>
<!-- dir_75733106c77e08a47153c295292fc58e -->
<g id="node2" class="node">
<title>dir_75733106c77e08a47153c295292fc58e</title>
<g id="a_node2"><a xlink:href="dir_75733106c77e08a47153c295292fc58e.html" target="_top" xlink:title="aducm3029">
<polygon fill="#a2b4d6" stroke="#404040" points="168,-98 94,-98 94,-79 168,-79 168,-98"/>
<text text-anchor="middle" x="131" y="-86" font-family="Helvetica,sans-Serif" font-size="10.00">aducm3029</text>
</a>
</g>
</g>
<!-- dir_d2978f006c706e2a0b14af72fbbcec25 -->
<g id="node12" class="node">
<title>dir_d2978f006c706e2a0b14af72fbbcec25</title>
<g id="a_node12"><a xlink:href="dir_d2978f006c706e2a0b14af72fbbcec25.html" target="_top" xlink:title="mbed">
<polygon fill="#a2b4d6" stroke="#404040" points="299,-43 255,-43 255,-24 299,-24 299,-43"/>
<text text-anchor="middle" x="277" y="-31" font-family="Helvetica,sans-Serif" font-size="10.00">mbed</text>
</a>
</g>
</g>
<!-- dir_75733106c77e08a47153c295292fc58e&#45;&gt;dir_d2978f006c706e2a0b14af72fbbcec25 -->
<g id="edge1" class="edge">
<title>dir_75733106c77e08a47153c295292fc58e&#45;&gt;dir_d2978f006c706e2a0b14af72fbbcec25</title>
<g id="a_edge1"><a xlink:href="dir_000227_000945.html" target="_top">
<path fill="none" stroke="#63b8ff" d="M154.46,-78.98C179.01,-70.07 217.72,-56.02 245.05,-46.1"/>
<polygon fill="#63b8ff" stroke="#63b8ff" points="246.35,-49.35 254.56,-42.65 243.97,-42.77 246.35,-49.35"/>
</a>
</g>
<g id="a_edge1&#45;headlabel"><a xlink:href="dir_000227_000945.html" target="_top" xlink:title="1">
<text text-anchor="middle" x="243.94" y="-50.74" font-family="Helvetica,sans-Serif" font-size="10.00" fill="#63b8ff">1</text>
</a>
</g>
</g>
<!-- dir_d44c64559bbebec7f509842c48db8b23 -->
<g id="node17" class="node">
<title>dir_d44c64559bbebec7f509842c48db8b23</title>
<g id="a_node17"><a xlink:href="dir_d44c64559bbebec7f509842c48db8b23.html" target="_top" xlink:title="include">
<polygon fill="#edf0f7" stroke="#404040" points="1087,-43 1035,-43 1035,-24 1087,-24 1087,-43"/>
<text text-anchor="middle" x="1061" y="-31" font-family="Helvetica,sans-Serif" font-size="10.00">include</text>
</a>
</g>
</g>
<!-- dir_75733106c77e08a47153c295292fc58e&#45;&gt;dir_d44c64559bbebec7f509842c48db8b23 -->
<g id="edge2" class="edge">
<title>dir_75733106c77e08a47153c295292fc58e&#45;&gt;dir_d44c64559bbebec7f509842c48db8b23</title>
<g id="a_edge2"><a xlink:href="dir_000227_000749.html" target="_top">
<path fill="none" stroke="#63b8ff" d="M168.09,-80.18C171.1,-79.73 174.09,-79.33 177,-79 550.96,-36.7 649.9,-92.27 1023,-43 1023.61,-42.92 1024.22,-42.83 1024.83,-42.74"/>
<polygon fill="#63b8ff" stroke="#63b8ff" points="1025.7,-46.15 1034.94,-40.97 1024.49,-39.25 1025.7,-46.15"/>
</a>
</g>
<g id="a_edge2&#45;headlabel"><a xlink:href="dir_000227_000749.html" target="_top" xlink:title="61">
<text text-anchor="middle" x="1022.65" y="-47.07" font-family="Helvetica,sans-Serif" font-size="10.00" fill="#63b8ff">61</text>
</a>
</g>
</g>
<!-- dir_0ae676e87a0dbb1a4743e6cd33f4a7a7 -->
<g id="node3" class="node">
<title>dir_0ae676e87a0dbb1a4743e6cd33f4a7a7</title>
<g id="a_node3"><a xlink:href="dir_0ae676e87a0dbb1a4743e6cd33f4a7a7.html" target="_top" xlink:title="altera">
<polygon fill="#a2b4d6" stroke="#404040" points="706.5,-98 661.5,-98 661.5,-79 706.5,-79 706.5,-98"/>
<text text-anchor="middle" x="684" y="-86" font-family="Helvetica,sans-Serif" font-size="10.00">altera</text>
</a>
</g>
</g>
<!-- dir_0ae676e87a0dbb1a4743e6cd33f4a7a7&#45;&gt;dir_d44c64559bbebec7f509842c48db8b23 -->
<g id="edge3" class="edge">
<title>dir_0ae676e87a0dbb1a4743e6cd33f4a7a7&#45;&gt;dir_d44c64559bbebec7f509842c48db8b23</title>
<g id="a_edge3"><a xlink:href="dir_000247_000749.html" target="_top">
<path fill="none" stroke="#63b8ff" d="M706.63,-81.06C709.76,-80.29 712.95,-79.58 716,-79 850.95,-53.3 887.56,-66.02 1023,-43 1023.6,-42.9 1024.21,-42.79 1024.83,-42.68"/>
<polygon fill="#63b8ff" stroke="#63b8ff" points="1025.76,-46.07 1034.9,-40.71 1024.42,-39.2 1025.76,-46.07"/>
</a>
</g>
<g id="a_edge3&#45;headlabel"><a xlink:href="dir_000247_000749.html" target="_top" xlink:title="13">
<text text-anchor="middle" x="1022.78" y="-47.04" font-family="Helvetica,sans-Serif" font-size="10.00" fill="#63b8ff">13</text>
</a>
</g>
</g>
<!-- dir_a013653facc10bc44dccc8ae566e22e4 -->
<g id="node4" class="node">
<title>dir_a013653facc10bc44dccc8ae566e22e4</title>
<g id="a_node4"><a xlink:href="dir_a013653facc10bc44dccc8ae566e22e4.html" target="_top" xlink:title="chibios">
<polygon fill="#a2b4d6" stroke="#404040" points="75.5,-98 24.5,-98 24.5,-79 75.5,-79 75.5,-98"/>
<text text-anchor="middle" x="50" y="-86" font-family="Helvetica,sans-Serif" font-size="10.00">chibios</text>
</a>
</g>
</g>
<!-- dir_a013653facc10bc44dccc8ae566e22e4&#45;&gt;dir_d2978f006c706e2a0b14af72fbbcec25 -->
<g id="edge4" class="edge">
<title>dir_a013653facc10bc44dccc8ae566e22e4&#45;&gt;dir_d2978f006c706e2a0b14af72fbbcec25</title>
<g id="a_edge4"><a xlink:href="dir_000362_000945.html" target="_top">
<path fill="none" stroke="#63b8ff" d="M75.61,-81.25C78.77,-80.49 81.96,-79.72 85,-79 141.15,-65.68 206.64,-50.6 244.8,-41.85"/>
<polygon fill="#63b8ff" stroke="#63b8ff" points="245.84,-45.21 254.81,-39.56 244.28,-38.38 245.84,-45.21"/>
</a>
</g>
<g id="a_edge4&#45;headlabel"><a xlink:href="dir_000362_000945.html" target="_top" xlink:title="3">
<text text-anchor="middle" x="242.97" y="-46.28" font-family="Helvetica,sans-Serif" font-size="10.00" fill="#63b8ff">3</text>
</a>
</g>
</g>
<!-- dir_a013653facc10bc44dccc8ae566e22e4&#45;&gt;dir_d44c64559bbebec7f509842c48db8b23 -->
<g id="edge5" class="edge">
<title>dir_a013653facc10bc44dccc8ae566e22e4&#45;&gt;dir_d44c64559bbebec7f509842c48db8b23</title>
<g id="a_edge5"><a xlink:href="dir_000362_000749.html" target="_top">
<path fill="none" stroke="#63b8ff" d="M75.5,-80.68C78.68,-80.02 81.9,-79.43 85,-79 498.21,-21.48 609.28,-96.76 1023,-43 1023.61,-42.92 1024.22,-42.84 1024.84,-42.75"/>
<polygon fill="#63b8ff" stroke="#63b8ff" points="1025.7,-46.15 1034.95,-40.98 1024.49,-39.26 1025.7,-46.15"/>
</a>
</g>
<g id="a_edge5&#45;headlabel"><a xlink:href="dir_000362_000749.html" target="_top" xlink:title="18">
<text text-anchor="middle" x="1022.64" y="-47.07" font-family="Helvetica,sans-Serif" font-size="10.00" fill="#63b8ff">18</text>
</a>
</g>
</g>
<!-- dir_19a7e2fb042922fa75a281eefbb7a02a -->
<g id="node5" class="node">
<title>dir_19a7e2fb042922fa75a281eefbb7a02a</title>
<g id="a_node5"><a xlink:href="dir_19a7e2fb042922fa75a281eefbb7a02a.html" target="_top" xlink:title="freeRTOS">
<polygon fill="#a2b4d6" stroke="#404040" points="643,-98 581,-98 581,-79 643,-79 643,-98"/>
<text text-anchor="middle" x="612" y="-86" font-family="Helvetica,sans-Serif" font-size="10.00">freeRTOS</text>
</a>
</g>
</g>
<!-- dir_19a7e2fb042922fa75a281eefbb7a02a&#45;&gt;dir_d44c64559bbebec7f509842c48db8b23 -->
<g id="edge6" class="edge">
<title>dir_19a7e2fb042922fa75a281eefbb7a02a&#45;&gt;dir_d44c64559bbebec7f509842c48db8b23</title>
<g id="a_edge6"><a xlink:href="dir_000653_000749.html" target="_top">
<path fill="none" stroke="#63b8ff" d="M643.38,-80.48C646.29,-79.94 649.19,-79.43 652,-79 815.73,-53.74 859.41,-69.13 1023,-43 1023.6,-42.9 1024.21,-42.8 1024.83,-42.7"/>
<polygon fill="#63b8ff" stroke="#63b8ff" points="1025.75,-46.09 1034.92,-40.78 1024.44,-39.21 1025.75,-46.09"/>
</a>
</g>
<g id="a_edge6&#45;headlabel"><a xlink:href="dir_000653_000749.html" target="_top" xlink:title="4">
<text text-anchor="middle" x="1022.75" y="-47.05" font-family="Helvetica,sans-Serif" font-size="10.00" fill="#63b8ff">4</text>
</a>
</g>
</g>
<!-- dir_a10e8f5a04357e4b6d6d8a937b65724a -->
<g id="node6" class="node">
<title>dir_a10e8f5a04357e4b6d6d8a937b65724a</title>
<g id="a_node6"><a xlink:href="dir_a10e8f5a04357e4b6d6d8a937b65724a.html" target="_top" xlink:title="ftd2xx">
<polygon fill="#a2b4d6" stroke="#404040" points="491.5,-98 444.5,-98 444.5,-79 491.5,-79 491.5,-98"/>
<text text-anchor="middle" x="468" y="-86" font-family="Helvetica,sans-Serif" font-size="10.00">ftd2xx</text>
</a>
</g>
</g>
<!-- dir_a10e8f5a04357e4b6d6d8a937b65724a&#45;&gt;dir_d2978f006c706e2a0b14af72fbbcec25 -->
<g id="edge8" class="edge">
<title>dir_a10e8f5a04357e4b6d6d8a937b65724a&#45;&gt;dir_d2978f006c706e2a0b14af72fbbcec25</title>
<g id="a_edge8"><a xlink:href="dir_000655_000945.html" target="_top">
<path fill="none" stroke="#63b8ff" d="M444.2,-80.89C410.1,-71.43 347.27,-54 309.1,-43.41"/>
<polygon fill="#63b8ff" stroke="#63b8ff" points="309.6,-39.91 299.03,-40.61 307.73,-46.66 309.6,-39.91"/>
</a>
</g>
<g id="a_edge8&#45;headlabel"><a xlink:href="dir_000655_000945.html" target="_top" xlink:title="1">
<text text-anchor="middle" x="313.82" y="-35.64" font-family="Helvetica,sans-Serif" font-size="10.00" fill="#63b8ff">1</text>
</a>
</g>
</g>
<!-- dir_a10e8f5a04357e4b6d6d8a937b65724a&#45;&gt;dir_d44c64559bbebec7f509842c48db8b23 -->
<g id="edge7" class="edge">
<title>dir_a10e8f5a04357e4b6d6d8a937b65724a&#45;&gt;dir_d44c64559bbebec7f509842c48db8b23</title>
<g id="a_edge7"><a xlink:href="dir_000655_000749.html" target="_top">
<path fill="none" stroke="#63b8ff" d="M491.66,-80.68C494.45,-80.03 497.28,-79.45 500,-79 729.86,-40.92 792.43,-76.53 1023,-43 1023.61,-42.91 1024.22,-42.82 1024.83,-42.72"/>
<polygon fill="#63b8ff" stroke="#63b8ff" points="1025.72,-46.12 1034.93,-40.88 1024.46,-39.23 1025.72,-46.12"/>
</a>
</g>
<g id="a_edge7&#45;headlabel"><a xlink:href="dir_000655_000749.html" target="_top" xlink:title="17">
<text text-anchor="middle" x="1022.7" y="-47.06" font-family="Helvetica,sans-Serif" font-size="10.00" fill="#63b8ff">17</text>
</a>
</g>
</g>
<!-- dir_33df6b6a98ac2cf98a99d4cd9bc23d89 -->
<g id="node7" class="node">
<title>dir_33df6b6a98ac2cf98a99d4cd9bc23d89</title>
<g id="a_node7"><a xlink:href="dir_33df6b6a98ac2cf98a99d4cd9bc23d89.html" target="_top" xlink:title="generic">
<polygon fill="#a2b4d6" stroke="#404040" points="562.5,-98 509.5,-98 509.5,-79 562.5,-79 562.5,-98"/>
<text text-anchor="middle" x="536" y="-86" font-family="Helvetica,sans-Serif" font-size="10.00">generic</text>
</a>
</g>
</g>
<!-- dir_33df6b6a98ac2cf98a99d4cd9bc23d89&#45;&gt;dir_d44c64559bbebec7f509842c48db8b23 -->
<g id="edge9" class="edge">
<title>dir_33df6b6a98ac2cf98a99d4cd9bc23d89&#45;&gt;dir_d44c64559bbebec7f509842c48db8b23</title>
<g id="a_edge9"><a xlink:href="dir_000656_000749.html" target="_top">
<path fill="none" stroke="#63b8ff" d="M562.65,-80.73C565.79,-80.08 568.95,-79.48 572,-79 770.65,-47.81 824.17,-73.02 1023,-43 1023.61,-42.91 1024.22,-42.81 1024.83,-42.71"/>
<polygon fill="#63b8ff" stroke="#63b8ff" points="1025.73,-46.11 1034.93,-40.84 1024.45,-39.22 1025.73,-46.11"/>
</a>
</g>
<g id="a_edge9&#45;headlabel"><a xlink:href="dir_000656_000749.html" target="_top" xlink:title="22">
<text text-anchor="middle" x="1022.72" y="-47.05" font-family="Helvetica,sans-Serif" font-size="10.00" fill="#63b8ff">22</text>
</a>
</g>
</g>
<!-- dir_b9e061f1b6ca52269c075fc89cd460b3 -->
<g id="node8" class="node">
<title>dir_b9e061f1b6ca52269c075fc89cd460b3</title>
<g id="a_node8"><a xlink:href="dir_b9e061f1b6ca52269c075fc89cd460b3.html" target="_top" xlink:title="lattice">
<polygon fill="#a2b4d6" stroke="#404040" points="426.5,-98 379.5,-98 379.5,-79 426.5,-79 426.5,-98"/>
<text text-anchor="middle" x="403" y="-86" font-family="Helvetica,sans-Serif" font-size="10.00">lattice</text>
</a>
</g>
</g>
<!-- dir_b9e061f1b6ca52269c075fc89cd460b3&#45;&gt;dir_d2978f006c706e2a0b14af72fbbcec25 -->
<g id="edge10" class="edge">
<title>dir_b9e061f1b6ca52269c075fc89cd460b3&#45;&gt;dir_d2978f006c706e2a0b14af72fbbcec25</title>
<g id="a_edge10"><a xlink:href="dir_000764_000945.html" target="_top">
<path fill="none" stroke="#63b8ff" d="M382.76,-78.98C362.3,-70.38 330.47,-56.99 307.07,-47.15"/>
<polygon fill="#63b8ff" stroke="#63b8ff" points="308.19,-43.82 297.61,-43.17 305.47,-50.27 308.19,-43.82"/>
</a>
</g>
<g id="a_edge10&#45;headlabel"><a xlink:href="dir_000764_000945.html" target="_top" xlink:title="2">
<text text-anchor="middle" x="312.6" y="-40.1" font-family="Helvetica,sans-Serif" font-size="10.00" fill="#63b8ff">2</text>
</a>
</g>
</g>
<!-- dir_b9e061f1b6ca52269c075fc89cd460b3&#45;&gt;dir_d44c64559bbebec7f509842c48db8b23 -->
<g id="edge11" class="edge">
<title>dir_b9e061f1b6ca52269c075fc89cd460b3&#45;&gt;dir_d44c64559bbebec7f509842c48db8b23</title>
<g id="a_edge11"><a xlink:href="dir_000764_000749.html" target="_top">
<path fill="none" stroke="#63b8ff" d="M426.65,-80.66C429.45,-80.01 432.28,-79.44 435,-79 693.46,-37.19 763.76,-79.69 1023,-43 1023.61,-42.91 1024.22,-42.82 1024.83,-42.73"/>
<polygon fill="#63b8ff" stroke="#63b8ff" points="1025.72,-46.13 1034.93,-40.9 1024.47,-39.24 1025.72,-46.13"/>
</a>
</g>
<g id="a_edge11&#45;headlabel"><a xlink:href="dir_000764_000749.html" target="_top" xlink:title="30">
<text text-anchor="middle" x="1022.69" y="-47.06" font-family="Helvetica,sans-Serif" font-size="10.00" fill="#63b8ff">30</text>
</a>
</g>
</g>
<!-- dir_05506eb3a9f632991c1e37ae03347b32 -->
<g id="node9" class="node">
<title>dir_05506eb3a9f632991c1e37ae03347b32</title>
<g id="a_node9"><a xlink:href="dir_05506eb3a9f632991c1e37ae03347b32.html" target="_top" xlink:title="linux">
<polygon fill="#a2b4d6" stroke="#404040" points="361.5,-98 320.5,-98 320.5,-79 361.5,-79 361.5,-98"/>
<text text-anchor="middle" x="341" y="-86" font-family="Helvetica,sans-Serif" font-size="10.00">linux</text>
</a>
</g>
</g>
<!-- dir_05506eb3a9f632991c1e37ae03347b32&#45;&gt;dir_d2978f006c706e2a0b14af72fbbcec25 -->
<g id="edge12" class="edge">
<title>dir_05506eb3a9f632991c1e37ae03347b32&#45;&gt;dir_d2978f006c706e2a0b14af72fbbcec25</title>
<g id="a_edge12"><a xlink:href="dir_000767_000945.html" target="_top">
<path fill="none" stroke="#63b8ff" d="M330.72,-78.98C321.16,-71.07 306.72,-59.11 295.22,-49.58"/>
<polygon fill="#63b8ff" stroke="#63b8ff" points="297.4,-46.85 287.47,-43.17 292.94,-52.24 297.4,-46.85"/>
</a>
</g>
<g id="a_edge12&#45;headlabel"><a xlink:href="dir_000767_000945.html" target="_top" xlink:title="1">
<text text-anchor="middle" x="301.98" y="-44.46" font-family="Helvetica,sans-Serif" font-size="10.00" fill="#63b8ff">1</text>
</a>
</g>
</g>
<!-- dir_05506eb3a9f632991c1e37ae03347b32&#45;&gt;dir_d44c64559bbebec7f509842c48db8b23 -->
<g id="edge13" class="edge">
<title>dir_05506eb3a9f632991c1e37ae03347b32&#45;&gt;dir_d44c64559bbebec7f509842c48db8b23</title>
<g id="a_edge13"><a xlink:href="dir_000767_000749.html" target="_top">
<path fill="none" stroke="#63b8ff" d="M361.77,-80.79C364.52,-80.09 367.31,-79.46 370,-79 656.47,-29.8 735.08,-82.86 1023,-43 1023.61,-42.92 1024.22,-42.83 1024.83,-42.73"/>
<polygon fill="#63b8ff" stroke="#63b8ff" points="1025.71,-46.13 1034.94,-40.92 1024.48,-39.24 1025.71,-46.13"/>
</a>
</g>
<g id="a_edge13&#45;headlabel"><a xlink:href="dir_000767_000749.html" target="_top" xlink:title="19">
<text text-anchor="middle" x="1022.67" y="-47.06" font-family="Helvetica,sans-Serif" font-size="10.00" fill="#63b8ff">19</text>
</a>
</g>
</g>
<!-- dir_b803f3d9784929cb5a29e4050798b213 -->
<g id="node10" class="node">
<title>dir_b803f3d9784929cb5a29e4050798b213</title>
<g id="a_node10"><a xlink:href="dir_b803f3d9784929cb5a29e4050798b213.html" target="_top" xlink:title="mac">
<polygon fill="#a2b4d6" stroke="#404040" points="933,-98 895,-98 895,-79 933,-79 933,-98"/>
<text text-anchor="middle" x="914" y="-86" font-family="Helvetica,sans-Serif" font-size="10.00">mac</text>
</a>
</g>
</g>
<!-- dir_b803f3d9784929cb5a29e4050798b213&#45;&gt;dir_d44c64559bbebec7f509842c48db8b23 -->
<g id="edge14" class="edge">
<title>dir_b803f3d9784929cb5a29e4050798b213&#45;&gt;dir_d44c64559bbebec7f509842c48db8b23</title>
<g id="a_edge14"><a xlink:href="dir_000817_000749.html" target="_top">
<path fill="none" stroke="#63b8ff" d="M933.22,-80.57C957.17,-71.94 998.48,-57.04 1027.64,-46.53"/>
<polygon fill="#63b8ff" stroke="#63b8ff" points="1029.18,-49.69 1037.4,-43.01 1026.81,-43.11 1029.18,-49.69"/>
</a>
</g>
<g id="a_edge14&#45;headlabel"><a xlink:href="dir_000817_000749.html" target="_top" xlink:title="3">
<text text-anchor="middle" x="1026.76" y="-51.08" font-family="Helvetica,sans-Serif" font-size="10.00" fill="#63b8ff">3</text>
</a>
</g>
</g>
<!-- dir_3d6ca3fb4d19696a07ddd3baa647c5fd -->
<g id="node11" class="node">
<title>dir_3d6ca3fb4d19696a07ddd3baa647c5fd</title>
<g id="a_node11"><a xlink:href="dir_3d6ca3fb4d19696a07ddd3baa647c5fd.html" target="_top" xlink:title="maxim">
<polygon fill="#a2b4d6" stroke="#404040" points="302.5,-98 251.5,-98 251.5,-79 302.5,-79 302.5,-98"/>
<text text-anchor="middle" x="277" y="-86" font-family="Helvetica,sans-Serif" font-size="10.00">maxim</text>
</a>
</g>
</g>
<!-- dir_3d6ca3fb4d19696a07ddd3baa647c5fd&#45;&gt;dir_d2978f006c706e2a0b14af72fbbcec25 -->
<g id="edge15" class="edge">
<title>dir_3d6ca3fb4d19696a07ddd3baa647c5fd&#45;&gt;dir_d2978f006c706e2a0b14af72fbbcec25</title>
<g id="a_edge15"><a xlink:href="dir_000871_000945.html" target="_top">
<path fill="none" stroke="#63b8ff" d="M277,-78.75C277,-71.8 277,-61.85 277,-53.13"/>
<polygon fill="#63b8ff" stroke="#63b8ff" points="280.5,-53.09 277,-43.09 273.5,-53.09 280.5,-53.09"/>
</a>
</g>
<g id="a_edge15&#45;headlabel"><a xlink:href="dir_000871_000945.html" target="_top" xlink:title="66">
<text text-anchor="middle" x="283.34" y="-54.18" font-family="Helvetica,sans-Serif" font-size="10.00" fill="#63b8ff">66</text>
</a>
</g>
</g>
<!-- dir_3d6ca3fb4d19696a07ddd3baa647c5fd&#45;&gt;dir_d44c64559bbebec7f509842c48db8b23 -->
<g id="edge16" class="edge">
<title>dir_3d6ca3fb4d19696a07ddd3baa647c5fd&#45;&gt;dir_d44c64559bbebec7f509842c48db8b23</title>
<g id="a_edge16"><a xlink:href="dir_000871_000749.html" target="_top">
<path fill="none" stroke="#63b8ff" d="M302.51,-80.56C305.36,-79.95 308.23,-79.41 311,-79 624.4,-32.36 709.05,-85.74 1023,-43 1023.61,-42.92 1024.22,-42.83 1024.83,-42.74"/>
<polygon fill="#63b8ff" stroke="#63b8ff" points="1025.71,-46.14 1034.94,-40.94 1024.48,-39.25 1025.71,-46.14"/>
</a>
</g>
<g id="a_edge16&#45;headlabel"><a xlink:href="dir_000871_000749.html" target="_top" xlink:title="543">
<text text-anchor="middle" x="1022.67" y="-47.06" font-family="Helvetica,sans-Serif" font-size="10.00" fill="#63b8ff">543</text>
</a>
</g>
</g>
<!-- dir_48d6b6364e6b4be46aaf3267480e6169 -->
<g id="node13" class="node">
<title>dir_48d6b6364e6b4be46aaf3267480e6169</title>
<g id="a_node13"><a xlink:href="dir_48d6b6364e6b4be46aaf3267480e6169.html" target="_top" xlink:title="pico">
<polygon fill="#a2b4d6" stroke="#404040" points="876.5,-98 839.5,-98 839.5,-79 876.5,-79 876.5,-98"/>
<text text-anchor="middle" x="858" y="-86" font-family="Helvetica,sans-Serif" font-size="10.00">pico</text>
</a>
</g>
</g>
<!-- dir_48d6b6364e6b4be46aaf3267480e6169&#45;&gt;dir_d44c64559bbebec7f509842c48db8b23 -->
<g id="edge17" class="edge">
<title>dir_48d6b6364e6b4be46aaf3267480e6169&#45;&gt;dir_d44c64559bbebec7f509842c48db8b23</title>
<g id="a_edge17"><a xlink:href="dir_000969_000749.html" target="_top">
<path fill="none" stroke="#63b8ff" d="M876.64,-81.71C879.76,-80.78 882.97,-79.85 886,-79 933.82,-65.67 989.45,-51.8 1024.92,-43.16"/>
<polygon fill="#63b8ff" stroke="#63b8ff" points="1025.92,-46.52 1034.81,-40.76 1024.27,-39.72 1025.92,-46.52"/>
</a>
</g>
<g id="a_edge17&#45;headlabel"><a xlink:href="dir_000969_000749.html" target="_top" xlink:title="40">
<text text-anchor="middle" x="1023.09" y="-47.63" font-family="Helvetica,sans-Serif" font-size="10.00" fill="#63b8ff">40</text>
</a>
</g>
</g>
<!-- dir_71100023361704796b90f142b5c96730 -->
<g id="node14" class="node">
<title>dir_71100023361704796b90f142b5c96730</title>
<g id="a_node14"><a xlink:href="dir_71100023361704796b90f142b5c96730.html" target="_top" xlink:title="stm32">
<polygon fill="#a2b4d6" stroke="#404040" points="233.5,-98 186.5,-98 186.5,-79 233.5,-79 233.5,-98"/>
<text text-anchor="middle" x="210" y="-86" font-family="Helvetica,sans-Serif" font-size="10.00">stm32</text>
</a>
</g>
</g>
<!-- dir_71100023361704796b90f142b5c96730&#45;&gt;dir_d2978f006c706e2a0b14af72fbbcec25 -->
<g id="edge18" class="edge">
<title>dir_71100023361704796b90f142b5c96730&#45;&gt;dir_d2978f006c706e2a0b14af72fbbcec25</title>
<g id="a_edge18"><a xlink:href="dir_001261_000945.html" target="_top">
<path fill="none" stroke="#63b8ff" d="M220.76,-78.98C230.77,-71.07 245.89,-59.11 257.93,-49.58"/>
<polygon fill="#63b8ff" stroke="#63b8ff" points="260.37,-52.12 266.04,-43.17 256.03,-46.63 260.37,-52.12"/>
</a>
</g>
<g id="a_edge18&#45;headlabel"><a xlink:href="dir_001261_000945.html" target="_top" xlink:title="13">
<text text-anchor="middle" x="259.31" y="-54.08" font-family="Helvetica,sans-Serif" font-size="10.00" fill="#63b8ff">13</text>
</a>
</g>
</g>
<!-- dir_71100023361704796b90f142b5c96730&#45;&gt;dir_d44c64559bbebec7f509842c48db8b23 -->
<g id="edge19" class="edge">
<title>dir_71100023361704796b90f142b5c96730&#45;&gt;dir_d44c64559bbebec7f509842c48db8b23</title>
<g id="a_edge19"><a xlink:href="dir_001261_000749.html" target="_top">
<path fill="none" stroke="#63b8ff" d="M233.65,-80.62C236.44,-79.98 239.27,-79.42 242,-79 585.43,-26.1 678.59,-89.1 1023,-43 1023.61,-42.92 1024.22,-42.83 1024.83,-42.74"/>
<polygon fill="#63b8ff" stroke="#63b8ff" points="1025.7,-46.14 1034.94,-40.96 1024.49,-39.25 1025.7,-46.14"/>
</a>
</g>
<g id="a_edge19&#45;headlabel"><a xlink:href="dir_001261_000749.html" target="_top" xlink:title="69">
<text text-anchor="middle" x="1022.66" y="-47.06" font-family="Helvetica,sans-Serif" font-size="10.00" fill="#63b8ff">69</text>
</a>
</g>
</g>
<!-- dir_22e3362022d911bd85ddb4c2ef60e657 -->
<g id="node15" class="node">
<title>dir_22e3362022d911bd85ddb4c2ef60e657</title>
<g id="a_node15"><a xlink:href="dir_22e3362022d911bd85ddb4c2ef60e657.html" target="_top" xlink:title="win">
<polygon fill="#a2b4d6" stroke="#404040" points="821,-98 787,-98 787,-79 821,-79 821,-98"/>
<text text-anchor="middle" x="804" y="-86" font-family="Helvetica,sans-Serif" font-size="10.00">win</text>
</a>
</g>
</g>
<!-- dir_22e3362022d911bd85ddb4c2ef60e657&#45;&gt;dir_d44c64559bbebec7f509842c48db8b23 -->
<g id="edge20" class="edge">
<title>dir_22e3362022d911bd85ddb4c2ef60e657&#45;&gt;dir_d44c64559bbebec7f509842c48db8b23</title>
<g id="a_edge20"><a xlink:href="dir_001312_000749.html" target="_top">
<path fill="none" stroke="#63b8ff" d="M821.05,-81.79C824.33,-80.79 827.76,-79.81 831,-79 915.22,-57.93 937.96,-60.48 1023,-43 1023.6,-42.88 1024.21,-42.75 1024.81,-42.62"/>
<polygon fill="#63b8ff" stroke="#63b8ff" points="1025.82,-45.99 1034.86,-40.47 1024.35,-39.14 1025.82,-45.99"/>
</a>
</g>
<g id="a_edge20&#45;headlabel"><a xlink:href="dir_001312_000749.html" target="_top" xlink:title="3">
<text text-anchor="middle" x="1022.9" y="-47.02" font-family="Helvetica,sans-Serif" font-size="10.00" fill="#63b8ff">3</text>
</a>
</g>
</g>
<!-- dir_d48df8048749553b33f54529a54c55cb -->
<g id="node16" class="node">
<title>dir_d48df8048749553b33f54529a54c55cb</title>
<g id="a_node16"><a xlink:href="dir_d48df8048749553b33f54529a54c55cb.html" target="_top" xlink:title="xilinx">
<polygon fill="#a2b4d6" stroke="#404040" points="769,-98 725,-98 725,-79 769,-79 769,-98"/>
<text text-anchor="middle" x="747" y="-86" font-family="Helvetica,sans-Serif" font-size="10.00">xilinx</text>
</a>
</g>
</g>
<!-- dir_d48df8048749553b33f54529a54c55cb&#45;&gt;dir_d44c64559bbebec7f509842c48db8b23 -->
<g id="edge21" class="edge">
<title>dir_d48df8048749553b33f54529a54c55cb&#45;&gt;dir_d44c64559bbebec7f509842c48db8b23</title>
<g id="a_edge21"><a xlink:href="dir_001314_000749.html" target="_top">
<path fill="none" stroke="#63b8ff" d="M769.27,-81.04C772.19,-80.3 775.16,-79.6 778,-79 885.71,-56.41 914.78,-63.03 1023,-43 1023.6,-42.89 1024.21,-42.77 1024.82,-42.66"/>
<polygon fill="#63b8ff" stroke="#63b8ff" points="1025.79,-46.03 1034.89,-40.61 1024.39,-39.17 1025.79,-46.03"/>
</a>
</g>
<g id="a_edge21&#45;headlabel"><a xlink:href="dir_001314_000749.html" target="_top" xlink:title="32">
<text text-anchor="middle" x="1022.83" y="-47.03" font-family="Helvetica,sans-Serif" font-size="10.00" fill="#63b8ff">32</text>
</a>
</g>
</g>
</g>
</svg>

<g id="navigator" transform="translate(0 0)" fill="#404254">
  <rect fill="#f2f5e9" fill-opacity="0.5" stroke="#606060" stroke-width=".5" x="0" y="0" width="60" height="60"/>
  <use id="zoomplus" xlink:href="#zoomPlus" x="17" y="9" onmousedown="handleZoom(evt,'in')"/>
  <use id="zoomminus" xlink:href="#zoomMin" x="42" y="9" onmousedown="handleZoom(evt,'out')"/>
  <use id="reset" xlink:href="#resetDef" x="30" y="36" onmousedown="handleReset()"/>
   <use id="arrowup" xlink:href="#arrowUp" x="0" y="0" onmousedown="handlePan(0,-1)"/>
  <use id="arrowright" xlink:href="#arrowRight" x="0" y="0" onmousedown="handlePan(1,0)"/>
  <use id="arrowdown" xlink:href="#arrowDown" x="0" y="0" onmousedown="handlePan(0,1)"/>
  <use id="arrowleft" xlink:href="#arrowLeft" x="0" y="0" onmousedown="handlePan(-1,0)"/>
</g>
<svg viewBox="0 0 15 15" width="100%" height="30px" preserveAspectRatio="xMaxYMin meet">
 <g id="arrow_out" transform="scale(0.3 0.3)">
  <a xlink:href="dir_481058711dd13ded877a88795a4a55f2_dep_org.svg" target="_base">
   <rect id="button" ry="5" rx="5" y="6" x="6" height="38" width="38"
        fill="#f2f5e9" fill-opacity="0.5" stroke="#606060" stroke-width="1.0"/>
   <path id="arrow"
     d="M 11.500037,31.436501 C 11.940474,20.09759 22.043105,11.32322 32.158766,21.979434 L 37.068811,17.246167 C 37.068811,17.246167 37.088388,32 37.088388,32 L 22.160133,31.978069 C 22.160133,31.978069 26.997745,27.140456 26.997745,27.140456 C 18.528582,18.264221 13.291696,25.230495 11.500037,31.436501 z"
     style="fill:#404040;"/>
  </a>
 </g>
</svg>

<style type='text/css'>
<![CDATA[
[data-mouse-over-selected='false'] { opacity: 0.7; }
[data-mouse-over-selected='true']  { opacity: 1.0; }
]]>
</style>
<script type="application/ecmascript"><![CDATA[
document.addEventListener('DOMContentLoaded', (event) => {
  highlightEdges();
  highlightAdjacentNodes();
});
]]></script>
</svg>
